<?xml version="1.0" encoding="UTF-8" standalone="no"?><!DOCTYPE svg PUBLIC "-//W3C//DTD SVG 1.1//EN" "http://www.w3.org/Graphics/SVG/1.1/DTD/svg11.dtd"><svg width="1280px" height="720px" viewBox="0 0 1920 1080" version="1.1" xmlns="http://www.w3.org/2000/svg" xmlns:xlink="http://www.w3.org/1999/xlink" xml:space="preserve" xmlns:serif="http://www.serif.com/" style="fill-rule:evenodd;clip-rule:evenodd;stroke-linecap:round;stroke-miterlimit:7;"><rect x="0" y="0" width="1920" height="1080" style="fill:#b9d7db;"/><g transform="matrix(1.02803,0,0,1.01444,-53.817,-15.5949)"><rect x="52.35" y="1001.14" width="1867.65" height="78.861" style="fill:#35393e;"/></g><g transform="matrix(1,0,0,1,72.5494,-2.27374e-13)"><g transform="matrix(1.88816,0,0,1.61469,-812.35,-594.304)"><path d="M861.539,414.324C861.539,411.59 859.64,409.37 857.302,409.37L848.828,409.37C846.49,409.37 844.591,411.59 844.591,414.324L844.591,982.422C844.591,985.156 846.49,987.377 848.828,987.377L857.302,987.377C859.64,987.377 861.539,985.156 861.539,982.422L861.539,414.324Z" style="fill:#8e6444;"/></g><g transform="matrix(9.6944e-16,-15.8322,1.55279,9.5081e-17,162.221,14371.7)"><rect x="844.591" y="409.37" width="16.948" height="578.007" style="fill:#8e6444;"/></g><g transform="matrix(1.88816,0,0,1.61469,85.173,-594.304)"><path d="M861.539,414.324C861.539,411.59 859.64,409.37 857.302,409.37L848.828,409.37C846.49,409.37 844.591,411.59 844.591,414.324L844.591,982.422C844.591,985.156 846.49,987.377 848.828,987.377L857.302,987.377C859.64,987.377 861.539,985.156 861.539,982.422L861.539,414.324Z" style="fill:#8e6444;"/></g><g><g transform="matrix(4.16667,0,0,4.16667,-304.878,-741.787)"><path d="M371.499,227.032C371.499,233.78 365.704,239.25 358.556,239.25C351.408,239.25 345.613,233.78 345.613,227.032C345.613,220.283 351.408,214.813 358.556,214.813C365.704,214.813 371.499,220.283 371.499,227.032Z" style="fill:#068171;fill-rule:nonzero;"/></g><g transform="matrix(4.16667,0,0,4.16667,-304.878,-741.787)"><path d="M345.613,227.032C345.613,233.78 339.819,239.25 332.671,239.25C325.522,239.25 319.728,233.78 319.728,227.032C319.728,220.283 325.522,214.813 332.671,214.813C339.819,214.813 345.613,220.283 345.613,227.032Z" style="fill:#1ea58c;fill-rule:nonzero;"/></g><g transform="matrix(4.16667,0,0,4.16667,-304.878,-741.787)"><path d="M319.728,227.032C319.728,233.78 313.933,239.25 306.785,239.25C299.637,239.25 293.842,233.78 293.842,227.032C293.842,220.283 299.637,214.813 306.785,214.813C313.933,214.813 319.728,220.283 319.728,227.032Z" style="fill:#068171;fill-rule:nonzero;"/></g><g transform="matrix(4.16667,0,0,4.16667,-304.878,-741.787)"><path d="M293.842,227.032C293.842,233.78 288.047,239.25 280.899,239.25C273.751,239.25 267.956,233.78 267.956,227.032C267.956,220.283 273.751,214.813 280.899,214.813C288.047,214.813 293.842,220.283 293.842,227.032Z" style="fill:#1ea58c;fill-rule:nonzero;"/></g><g transform="matrix(4.16667,0,0,4.16667,-304.878,-741.787)"><path d="M267.958,227.035C267.958,227.581 267.92,228.117 267.846,228.645C267.006,234.634 261.579,239.254 255.018,239.254C242.836,239.254 242.066,228.645 242.066,228.645C242.066,228.645 243.314,226.479 243.327,226.21L248.134,216.933C249.988,215.601 252.311,214.815 255.018,214.815C262.161,214.815 267.958,220.288 267.958,227.035Z" style="fill:#068171;fill-rule:nonzero;"/></g><g transform="matrix(4.16667,0,0,4.16667,-304.878,-741.787)"><path d="M499.696,227.035L499.696,227.044C499.696,227.59 500.524,228.645 500.524,228.645C500.524,228.645 500.524,239.254 487.98,239.254C481.417,239.254 475.992,234.634 475.151,228.645C475.077,228.117 475.04,227.581 475.04,227.035C475.04,220.288 480.836,214.815 487.98,214.815C490.39,214.815 492.503,215.438 494.246,216.521L499.696,227.035Z" style="fill:#1ea58c;fill-rule:nonzero;"/></g><g transform="matrix(4.16667,0,0,4.16667,-304.878,-741.787)"><path d="M475.042,227.032C475.042,233.78 469.247,239.25 462.099,239.25C454.951,239.25 449.156,233.78 449.156,227.032C449.156,220.283 454.951,214.813 462.099,214.813C469.247,214.813 475.042,220.283 475.042,227.032Z" style="fill:#068171;fill-rule:nonzero;"/></g><g transform="matrix(4.16667,0,0,4.16667,-304.878,-741.787)"><path d="M449.156,227.032C449.156,233.78 443.361,239.25 436.213,239.25C429.065,239.25 423.27,233.78 423.27,227.032C423.27,220.283 429.065,214.813 436.213,214.813C443.361,214.813 449.156,220.283 449.156,227.032Z" style="fill:#1ea58c;fill-rule:nonzero;"/></g><g transform="matrix(4.16667,0,0,4.16667,-304.878,-741.787)"><path d="M423.27,227.032C423.27,233.78 417.475,239.25 410.327,239.25C403.179,239.25 397.385,233.78 397.385,227.032C397.385,220.283 403.179,214.813 410.327,214.813C417.475,214.813 423.27,220.283 423.27,227.032Z" style="fill:#068171;fill-rule:nonzero;"/></g><g transform="matrix(4.16667,0,0,4.16667,-304.878,-741.787)"><path d="M500.524,228.645L242.066,228.645L243.327,226.21L248.134,216.933L261.525,194.037L484.117,194.037L494.246,216.521L499.696,227.035L499.696,227.044L500.524,228.645Z" style="fill:#068171;fill-rule:nonzero;"/></g><path d="M1349.62,193.157C1350.45,196.706 1350.89,200.394 1350.89,204.179C1350.89,205.591 1350.83,206.989 1350.71,208.373L1350.89,210.9L1350.43,210.9C1346.94,235.839 1324.33,255.088 1296.96,255.088C1269.59,255.088 1246.98,235.839 1243.5,210.9L1242.53,210.9L1243.04,204.578C1243.04,204.443 1243.03,204.311 1243.03,204.179C1243.03,201.39 1243.27,198.653 1243.73,195.985L1254.16,66.7L1340.59,66.7L1349.62,193.157Z" style="fill:#1ea58c;fill-rule:nonzero;"/><g transform="matrix(4.16667,0,0,4.16667,-304.878,-741.787)"><path d="M345.674,228.645L351.014,194.037L329.207,194.037L319.667,228.645L345.674,228.645Z" style="fill:#1ea58c;fill-rule:nonzero;"/></g><g transform="matrix(4.16667,0,0,4.16667,-304.878,-741.787)"><path d="M293.903,228.645L305.682,194.037L284.667,194.037L267.896,228.645L293.903,228.645Z" style="fill:#1ea58c;fill-rule:nonzero;"/></g><g transform="matrix(4.16667,0,0,4.16667,-304.878,-741.787)"><path d="M449.217,228.645L436.213,194.037L414.697,194.037L423.21,228.645L449.217,228.645Z" style="fill:#1ea58c;fill-rule:nonzero;"/></g><g transform="matrix(4.16667,0,0,4.16667,-304.878,-741.787)"><path d="M500.524,228.645L484.117,194.037L459.591,194.037L475.151,228.645L500.524,228.645Z" style="fill:#1ea58c;fill-rule:nonzero;"/></g></g><g transform="matrix(1,0,0,1,-4.54747e-13,-75.454)"><path d="M814.371,322.488C1090.45,476.817 1415.93,474.047 1679.89,325.517" style="fill:none;stroke:#2b2b2b;stroke-width:8.33px;"/></g></g><g transform="matrix(1.8539,0,0,1.8539,1120.83,747.057)"><rect x="0" y="35.5" width="214" height="67" style="fill:#653d1f;"/><g transform="matrix(0.539403,0,0,0.539403,-629.472,-400.219)"><g transform="matrix(41.6667,0,0,41.6667,1226.52,887.086)"><path d="M0.07,-0.755L0.07,-0.76C0.074,-0.763 0.079,-0.765 0.086,-0.766C0.091,-0.771 0.099,-0.776 0.109,-0.781C0.124,-0.789 0.133,-0.792 0.137,-0.792C0.139,-0.792 0.144,-0.79 0.15,-0.786C0.156,-0.79 0.16,-0.792 0.162,-0.794C0.166,-0.797 0.169,-0.798 0.173,-0.799C0.179,-0.793 0.187,-0.789 0.197,-0.787C0.215,-0.782 0.227,-0.78 0.233,-0.78L0.235,-0.78C0.256,-0.782 0.266,-0.783 0.266,-0.783L0.294,-0.759C0.305,-0.773 0.312,-0.78 0.313,-0.78C0.317,-0.78 0.322,-0.778 0.328,-0.773C0.33,-0.772 0.332,-0.771 0.334,-0.771L0.346,-0.772L0.377,-0.767L0.397,-0.769L0.418,-0.765L0.438,-0.765L0.471,-0.764C0.48,-0.767 0.485,-0.768 0.485,-0.768L0.513,-0.767L0.525,-0.768L0.539,-0.768L0.586,-0.774C0.609,-0.772 0.623,-0.771 0.627,-0.771C0.638,-0.771 0.646,-0.773 0.649,-0.775C0.654,-0.778 0.659,-0.779 0.663,-0.78L0.742,-0.796C0.743,-0.794 0.743,-0.792 0.743,-0.791C0.743,-0.789 0.742,-0.786 0.74,-0.782C0.736,-0.773 0.734,-0.768 0.732,-0.766C0.73,-0.763 0.726,-0.76 0.72,-0.754C0.707,-0.744 0.697,-0.733 0.689,-0.724C0.684,-0.731 0.68,-0.734 0.676,-0.734L0.666,-0.734C0.665,-0.734 0.66,-0.74 0.65,-0.752C0.65,-0.752 0.649,-0.752 0.649,-0.752C0.647,-0.752 0.644,-0.746 0.64,-0.733L0.64,-0.725C0.631,-0.728 0.626,-0.731 0.625,-0.733C0.62,-0.739 0.616,-0.745 0.611,-0.751C0.611,-0.752 0.611,-0.752 0.61,-0.752L0.58,-0.729C0.579,-0.729 0.577,-0.728 0.574,-0.728C0.566,-0.728 0.556,-0.729 0.544,-0.73C0.539,-0.73 0.533,-0.731 0.523,-0.731C0.519,-0.738 0.514,-0.742 0.509,-0.741L0.494,-0.742C0.49,-0.742 0.482,-0.74 0.472,-0.737C0.465,-0.735 0.457,-0.734 0.446,-0.734C0.441,-0.734 0.431,-0.737 0.417,-0.742L0.403,-0.741L0.389,-0.741C0.381,-0.737 0.377,-0.736 0.376,-0.736C0.376,-0.736 0.361,-0.739 0.33,-0.746L0.318,-0.761L0.303,-0.74L0.276,-0.764C0.276,-0.764 0.273,-0.759 0.268,-0.75C0.263,-0.74 0.256,-0.735 0.246,-0.735L0.245,-0.735C0.242,-0.735 0.238,-0.738 0.233,-0.744C0.223,-0.755 0.216,-0.761 0.21,-0.761C0.204,-0.761 0.199,-0.753 0.196,-0.735C0.197,-0.734 0.198,-0.733 0.198,-0.733L0.152,-0.685L0.195,-0.672L0.195,-0.658L0.195,-0.65C0.194,-0.647 0.192,-0.642 0.187,-0.635L0.196,-0.625L0.198,-0.578C0.207,-0.579 0.214,-0.579 0.218,-0.579C0.225,-0.579 0.241,-0.577 0.268,-0.572L0.328,-0.57L0.34,-0.565L0.356,-0.571C0.37,-0.568 0.379,-0.567 0.381,-0.567C0.385,-0.567 0.39,-0.569 0.396,-0.572C0.397,-0.572 0.398,-0.572 0.399,-0.572C0.401,-0.572 0.404,-0.571 0.41,-0.568L0.412,-0.573C0.415,-0.574 0.417,-0.574 0.417,-0.574L0.45,-0.57C0.465,-0.57 0.472,-0.57 0.473,-0.57C0.474,-0.57 0.477,-0.573 0.483,-0.579L0.488,-0.561C0.489,-0.559 0.49,-0.558 0.493,-0.558C0.495,-0.558 0.506,-0.564 0.526,-0.577C0.53,-0.579 0.533,-0.581 0.535,-0.581C0.535,-0.581 0.541,-0.579 0.554,-0.575C0.555,-0.575 0.556,-0.575 0.557,-0.575C0.562,-0.575 0.568,-0.576 0.574,-0.578C0.584,-0.582 0.604,-0.585 0.634,-0.589C0.655,-0.595 0.669,-0.599 0.677,-0.6L0.677,-0.595C0.677,-0.589 0.676,-0.584 0.675,-0.582C0.673,-0.578 0.669,-0.575 0.662,-0.572L0.664,-0.556C0.655,-0.55 0.646,-0.543 0.638,-0.536C0.628,-0.536 0.622,-0.536 0.619,-0.536C0.602,-0.537 0.59,-0.539 0.583,-0.542C0.574,-0.545 0.567,-0.548 0.56,-0.55C0.552,-0.545 0.545,-0.541 0.54,-0.54C0.538,-0.54 0.525,-0.539 0.502,-0.539L0.491,-0.539C0.479,-0.542 0.471,-0.543 0.468,-0.543C0.465,-0.543 0.462,-0.543 0.459,-0.542C0.443,-0.54 0.434,-0.539 0.432,-0.539C0.431,-0.539 0.425,-0.539 0.412,-0.541C0.409,-0.541 0.408,-0.542 0.406,-0.542L0.379,-0.54C0.377,-0.54 0.37,-0.541 0.36,-0.544L0.331,-0.538L0.314,-0.54L0.298,-0.538L0.285,-0.538L0.265,-0.537C0.254,-0.541 0.245,-0.544 0.238,-0.545L0.236,-0.542L0.234,-0.532L0.208,-0.535C0.208,-0.534 0.207,-0.529 0.206,-0.521C0.204,-0.514 0.204,-0.51 0.204,-0.509C0.204,-0.506 0.204,-0.5 0.205,-0.492C0.206,-0.469 0.207,-0.453 0.207,-0.444C0.203,-0.441 0.199,-0.439 0.195,-0.439C0.192,-0.435 0.19,-0.431 0.19,-0.428C0.19,-0.421 0.195,-0.414 0.205,-0.409C0.189,-0.404 0.179,-0.399 0.173,-0.393C0.169,-0.388 0.167,-0.379 0.167,-0.366C0.167,-0.352 0.173,-0.343 0.184,-0.338C0.198,-0.331 0.206,-0.326 0.206,-0.324C0.206,-0.324 0.205,-0.324 0.205,-0.323C0.2,-0.314 0.197,-0.307 0.197,-0.303C0.197,-0.3 0.198,-0.296 0.199,-0.292L0.207,-0.285L0.208,-0.28L0.205,-0.277C0.201,-0.277 0.197,-0.276 0.195,-0.274C0.196,-0.27 0.199,-0.267 0.204,-0.264L0.204,-0.256L0.205,-0.182C0.205,-0.179 0.204,-0.175 0.202,-0.173C0.201,-0.172 0.197,-0.168 0.188,-0.159C0.186,-0.158 0.186,-0.157 0.186,-0.154C0.186,-0.148 0.192,-0.144 0.205,-0.143L0.206,-0.1L0.207,-0.021C0.208,-0.01 0.209,-0.003 0.209,-0.002C0.209,0.005 0.205,0.012 0.195,0.02C0.199,0.041 0.205,0.051 0.214,0.049C0.214,0.059 0.214,0.065 0.214,0.068C0.216,0.088 0.216,0.1 0.216,0.104C0.216,0.114 0.213,0.119 0.208,0.119C0.204,0.119 0.201,0.118 0.196,0.116C0.196,0.125 0.195,0.13 0.192,0.132C0.192,0.132 0.188,0.134 0.182,0.136L0.168,0.142L0.147,0.148C0.136,0.152 0.13,0.154 0.13,0.154C0.128,0.154 0.124,0.152 0.118,0.147C0.119,0.144 0.12,0.142 0.12,0.141C0.12,0.137 0.117,0.132 0.113,0.126C0.116,0.121 0.12,0.112 0.125,0.102C0.13,0.094 0.133,0.09 0.133,0.088C0.134,0.087 0.134,0.083 0.134,0.075C0.138,0.053 0.14,0.032 0.14,0.012C0.14,0.01 0.14,0.005 0.139,-0.001C0.141,-0.003 0.142,-0.004 0.144,-0.004C0.147,-0.004 0.151,-0.003 0.155,-0.001L0.151,-0.01C0.147,-0.011 0.145,-0.012 0.144,-0.012C0.139,-0.013 0.136,-0.014 0.135,-0.015C0.134,-0.017 0.133,-0.024 0.133,-0.038C0.133,-0.058 0.133,-0.069 0.134,-0.07C0.134,-0.072 0.138,-0.076 0.143,-0.08C0.142,-0.082 0.142,-0.085 0.142,-0.087C0.142,-0.09 0.144,-0.092 0.148,-0.094L0.15,-0.092L0.154,-0.095L0.154,-0.108L0.15,-0.106L0.148,-0.117C0.146,-0.116 0.145,-0.116 0.144,-0.116C0.138,-0.116 0.135,-0.119 0.135,-0.125L0.135,-0.14C0.136,-0.145 0.136,-0.157 0.136,-0.176C0.139,-0.183 0.141,-0.187 0.141,-0.188C0.141,-0.19 0.14,-0.193 0.138,-0.197C0.144,-0.204 0.146,-0.209 0.146,-0.214C0.146,-0.217 0.144,-0.221 0.138,-0.225C0.138,-0.234 0.138,-0.24 0.138,-0.244C0.138,-0.249 0.138,-0.254 0.138,-0.258C0.139,-0.264 0.139,-0.267 0.139,-0.27C0.139,-0.271 0.138,-0.276 0.135,-0.286C0.134,-0.29 0.133,-0.295 0.133,-0.3C0.133,-0.307 0.137,-0.313 0.143,-0.315L0.143,-0.325L0.145,-0.325L0.153,-0.333L0.148,-0.349L0.14,-0.352C0.136,-0.36 0.134,-0.365 0.134,-0.367C0.133,-0.369 0.133,-0.382 0.133,-0.407L0.129,-0.426L0.128,-0.442C0.127,-0.453 0.126,-0.46 0.126,-0.461C0.126,-0.468 0.127,-0.477 0.128,-0.487C0.135,-0.487 0.139,-0.488 0.14,-0.49C0.14,-0.491 0.141,-0.495 0.143,-0.502L0.127,-0.534C0.13,-0.542 0.131,-0.548 0.131,-0.55C0.131,-0.552 0.129,-0.559 0.126,-0.573L0.124,-0.599L0.118,-0.623L0.116,-0.652L0.112,-0.668L0.115,-0.684L0.115,-0.685C0.114,-0.688 0.111,-0.696 0.105,-0.708C0.103,-0.712 0.102,-0.718 0.102,-0.727C0.102,-0.73 0.102,-0.735 0.103,-0.742L0.085,-0.739L0.07,-0.755Z" style="fill:#fff;fill-rule:nonzero;"/></g><g transform="matrix(41.6667,0,0,41.6667,1257.91,887.086)"><path d="M0.063,-0.336C0.064,-0.342 0.068,-0.347 0.072,-0.352C0.075,-0.356 0.083,-0.361 0.097,-0.367C0.111,-0.376 0.119,-0.38 0.121,-0.38C0.127,-0.38 0.131,-0.378 0.134,-0.374L0.136,-0.366L0.14,-0.351C0.139,-0.347 0.139,-0.344 0.139,-0.342C0.139,-0.339 0.14,-0.336 0.144,-0.332C0.151,-0.334 0.159,-0.338 0.17,-0.344L0.191,-0.351L0.211,-0.365L0.225,-0.37C0.232,-0.374 0.236,-0.375 0.236,-0.375C0.236,-0.375 0.24,-0.375 0.247,-0.374L0.249,-0.374C0.25,-0.374 0.261,-0.377 0.282,-0.384C0.284,-0.384 0.289,-0.385 0.296,-0.385C0.302,-0.385 0.306,-0.384 0.308,-0.382C0.308,-0.382 0.312,-0.379 0.318,-0.373C0.322,-0.372 0.325,-0.371 0.325,-0.371C0.326,-0.371 0.331,-0.373 0.339,-0.378C0.34,-0.378 0.341,-0.378 0.342,-0.378C0.346,-0.378 0.351,-0.376 0.356,-0.371C0.362,-0.367 0.365,-0.36 0.368,-0.35C0.363,-0.345 0.353,-0.338 0.338,-0.327C0.331,-0.318 0.326,-0.313 0.323,-0.313C0.318,-0.313 0.311,-0.319 0.302,-0.329C0.296,-0.328 0.292,-0.328 0.288,-0.328C0.283,-0.328 0.276,-0.33 0.267,-0.334C0.259,-0.337 0.251,-0.339 0.243,-0.34C0.239,-0.333 0.234,-0.33 0.227,-0.329C0.217,-0.328 0.212,-0.328 0.209,-0.327C0.196,-0.323 0.19,-0.321 0.19,-0.321C0.189,-0.321 0.186,-0.322 0.182,-0.325C0.176,-0.319 0.164,-0.31 0.148,-0.298C0.138,-0.291 0.132,-0.278 0.133,-0.259L0.133,-0.242C0.133,-0.236 0.133,-0.231 0.133,-0.227C0.133,-0.223 0.13,-0.218 0.122,-0.211C0.128,-0.205 0.13,-0.2 0.13,-0.196C0.13,-0.194 0.13,-0.191 0.129,-0.188L0.137,-0.186L0.138,-0.171L0.141,-0.083L0.139,-0.078L0.126,-0.071C0.108,-0.068 0.099,-0.065 0.099,-0.064C0.099,-0.063 0.109,-0.061 0.129,-0.058L0.138,-0.06C0.141,-0.049 0.143,-0.042 0.143,-0.038C0.143,-0.03 0.139,-0.024 0.131,-0.02C0.128,-0.018 0.12,-0.017 0.106,-0.015C0.104,-0.014 0.097,-0.01 0.085,-0.003C0.083,-0.002 0.081,-0.001 0.079,-0.001C0.071,-0.001 0.067,-0.004 0.067,-0.011C0.067,-0.013 0.069,-0.022 0.074,-0.039C0.075,-0.041 0.075,-0.043 0.075,-0.045C0.075,-0.046 0.074,-0.053 0.073,-0.067C0.073,-0.068 0.073,-0.071 0.075,-0.075L0.086,-0.079C0.087,-0.082 0.087,-0.084 0.087,-0.086C0.087,-0.091 0.084,-0.096 0.08,-0.102L0.08,-0.114C0.08,-0.117 0.079,-0.124 0.077,-0.137C0.078,-0.147 0.078,-0.157 0.078,-0.164C0.09,-0.168 0.096,-0.174 0.096,-0.18C0.096,-0.182 0.096,-0.184 0.095,-0.188C0.091,-0.187 0.088,-0.186 0.085,-0.186C0.083,-0.186 0.08,-0.187 0.077,-0.19L0.077,-0.239C0.077,-0.241 0.076,-0.244 0.076,-0.248L0.076,-0.255C0.076,-0.261 0.078,-0.268 0.083,-0.276C0.078,-0.28 0.076,-0.283 0.075,-0.286C0.075,-0.287 0.074,-0.297 0.073,-0.317C0.073,-0.321 0.069,-0.327 0.063,-0.336Z" style="fill:#fff;fill-rule:nonzero;"/></g><g transform="matrix(41.6667,0,0,41.6667,1272.01,887.086)"><path d="M0.063,-0.336C0.063,-0.341 0.067,-0.347 0.077,-0.355C0.099,-0.372 0.117,-0.382 0.133,-0.388L0.147,-0.373C0.144,-0.364 0.142,-0.353 0.14,-0.338C0.138,-0.326 0.137,-0.319 0.137,-0.316L0.137,-0.298L0.128,-0.287C0.128,-0.278 0.132,-0.271 0.139,-0.263C0.137,-0.26 0.136,-0.257 0.136,-0.257L0.137,-0.233C0.137,-0.233 0.137,-0.231 0.137,-0.228C0.136,-0.225 0.136,-0.222 0.136,-0.216L0.134,-0.123C0.134,-0.118 0.136,-0.107 0.14,-0.089L0.141,-0.069C0.143,-0.059 0.144,-0.053 0.144,-0.052C0.144,-0.045 0.141,-0.039 0.135,-0.033C0.134,-0.032 0.127,-0.027 0.117,-0.021C0.1,-0.008 0.091,-0.001 0.089,-0C0.086,0.001 0.083,0.002 0.08,0.002C0.076,0.002 0.072,-0 0.068,-0.004C0.07,-0.012 0.07,-0.017 0.071,-0.02C0.071,-0.024 0.073,-0.031 0.076,-0.042L0.077,-0.065L0.08,-0.113L0.08,-0.122C0.08,-0.127 0.083,-0.13 0.087,-0.13C0.089,-0.13 0.09,-0.13 0.092,-0.129C0.094,-0.135 0.095,-0.138 0.095,-0.14C0.095,-0.143 0.094,-0.148 0.092,-0.155C0.091,-0.159 0.09,-0.163 0.089,-0.169L0.081,-0.175C0.082,-0.182 0.082,-0.188 0.082,-0.191C0.082,-0.193 0.082,-0.195 0.082,-0.199L0.082,-0.206C0.082,-0.21 0.083,-0.215 0.086,-0.22C0.083,-0.224 0.082,-0.228 0.082,-0.232L0.082,-0.239L0.081,-0.25C0.102,-0.254 0.112,-0.258 0.112,-0.261C0.112,-0.261 0.112,-0.262 0.111,-0.262C0.106,-0.266 0.1,-0.269 0.093,-0.269C0.088,-0.269 0.082,-0.268 0.074,-0.268C0.075,-0.272 0.076,-0.276 0.076,-0.277C0.076,-0.278 0.074,-0.294 0.072,-0.326C0.071,-0.33 0.068,-0.333 0.063,-0.336ZM0.071,-0.533L0.071,-0.534C0.071,-0.545 0.079,-0.557 0.096,-0.571C0.1,-0.574 0.104,-0.578 0.109,-0.583C0.109,-0.584 0.112,-0.586 0.119,-0.591C0.131,-0.609 0.138,-0.619 0.141,-0.621C0.146,-0.625 0.15,-0.626 0.153,-0.626C0.155,-0.626 0.158,-0.624 0.165,-0.619C0.171,-0.615 0.174,-0.609 0.174,-0.603C0.174,-0.597 0.171,-0.593 0.165,-0.589C0.15,-0.578 0.136,-0.566 0.122,-0.554L0.108,-0.545L0.091,-0.533C0.082,-0.528 0.077,-0.526 0.076,-0.526C0.073,-0.526 0.071,-0.528 0.071,-0.533Z" style="fill:#fff;fill-rule:nonzero;"/></g><g transform="matrix(41.6667,0,0,41.6667,1280.86,887.086)"><path d="M0.308,-0.187L0.295,-0.178C0.283,-0.181 0.273,-0.183 0.265,-0.183C0.256,-0.183 0.246,-0.182 0.233,-0.181C0.23,-0.189 0.225,-0.194 0.219,-0.198L0.209,-0.186C0.203,-0.185 0.194,-0.183 0.185,-0.181C0.181,-0.18 0.178,-0.179 0.175,-0.179C0.174,-0.179 0.173,-0.179 0.172,-0.18C0.16,-0.182 0.153,-0.184 0.153,-0.184C0.153,-0.184 0.153,-0.183 0.152,-0.182L0.143,-0.192C0.137,-0.19 0.133,-0.188 0.129,-0.188C0.128,-0.188 0.124,-0.19 0.117,-0.193C0.116,-0.194 0.113,-0.195 0.108,-0.197C0.083,-0.206 0.071,-0.22 0.071,-0.24C0.071,-0.257 0.077,-0.274 0.091,-0.291C0.094,-0.296 0.104,-0.305 0.118,-0.317L0.128,-0.326L0.151,-0.34C0.174,-0.354 0.192,-0.364 0.203,-0.368C0.228,-0.379 0.248,-0.384 0.264,-0.384C0.266,-0.384 0.281,-0.38 0.308,-0.374L0.333,-0.378C0.349,-0.377 0.358,-0.376 0.361,-0.375C0.367,-0.371 0.371,-0.368 0.371,-0.365C0.371,-0.361 0.369,-0.358 0.366,-0.355C0.365,-0.354 0.357,-0.349 0.342,-0.34C0.326,-0.331 0.317,-0.326 0.315,-0.326C0.294,-0.326 0.279,-0.328 0.269,-0.331C0.266,-0.337 0.262,-0.343 0.259,-0.347L0.256,-0.347L0.247,-0.337C0.241,-0.337 0.237,-0.337 0.234,-0.337L0.218,-0.338C0.218,-0.338 0.213,-0.337 0.206,-0.335C0.203,-0.337 0.198,-0.338 0.191,-0.338C0.184,-0.333 0.174,-0.326 0.159,-0.318C0.151,-0.314 0.144,-0.308 0.138,-0.299C0.133,-0.291 0.13,-0.283 0.13,-0.275C0.13,-0.272 0.133,-0.267 0.139,-0.262C0.14,-0.261 0.146,-0.258 0.156,-0.254C0.162,-0.251 0.169,-0.247 0.175,-0.243C0.175,-0.241 0.175,-0.238 0.175,-0.237C0.175,-0.23 0.178,-0.227 0.183,-0.227C0.188,-0.227 0.194,-0.231 0.201,-0.239C0.208,-0.238 0.215,-0.238 0.22,-0.238C0.222,-0.238 0.231,-0.239 0.248,-0.242L0.263,-0.241C0.278,-0.243 0.285,-0.244 0.287,-0.244C0.289,-0.244 0.297,-0.241 0.312,-0.237L0.329,-0.239L0.347,-0.227C0.366,-0.218 0.378,-0.209 0.385,-0.202C0.39,-0.195 0.393,-0.19 0.394,-0.186L0.397,-0.17C0.402,-0.15 0.404,-0.139 0.404,-0.136C0.404,-0.134 0.404,-0.129 0.402,-0.119C0.401,-0.098 0.395,-0.088 0.384,-0.088C0.381,-0.088 0.377,-0.088 0.373,-0.089C0.369,-0.073 0.366,-0.064 0.363,-0.062C0.349,-0.045 0.339,-0.033 0.335,-0.027C0.318,-0.025 0.305,-0.02 0.294,-0.012C0.289,-0.008 0.286,-0.006 0.285,-0.006C0.284,-0.006 0.28,-0.005 0.273,-0.004L0.233,0.006C0.22,0.004 0.213,0.003 0.212,0.003C0.21,0.003 0.2,0.006 0.183,0.011L0.171,0.009C0.155,0.008 0.144,0.007 0.136,0.005C0.119,0.001 0.11,-0.002 0.109,-0.004L0.093,-0.014C0.074,-0.026 0.062,-0.034 0.058,-0.04C0.048,-0.051 0.043,-0.062 0.043,-0.073C0.043,-0.075 0.047,-0.079 0.054,-0.084L0.067,-0.097C0.079,-0.106 0.086,-0.11 0.088,-0.11C0.09,-0.11 0.091,-0.11 0.092,-0.109C0.099,-0.102 0.103,-0.094 0.103,-0.085L0.101,-0.07L0.101,-0.069C0.101,-0.066 0.102,-0.064 0.104,-0.063C0.105,-0.061 0.111,-0.058 0.121,-0.052C0.123,-0.05 0.126,-0.048 0.13,-0.045C0.138,-0.038 0.142,-0.035 0.143,-0.035L0.161,-0.027L0.177,-0.019L0.196,-0.019L0.208,-0.016C0.22,-0.02 0.23,-0.022 0.24,-0.022C0.249,-0.022 0.256,-0.024 0.26,-0.026L0.279,-0.035C0.289,-0.039 0.295,-0.041 0.297,-0.042C0.303,-0.047 0.311,-0.058 0.321,-0.075C0.332,-0.092 0.337,-0.112 0.337,-0.134C0.337,-0.139 0.335,-0.143 0.333,-0.147C0.32,-0.167 0.312,-0.18 0.308,-0.187Z" style="fill:#fff;fill-rule:nonzero;"/></g><g transform="matrix(41.6667,0,0,41.6667,1299.45,887.086)"><path d="M0.052,-0.204C0.057,-0.211 0.064,-0.226 0.074,-0.248C0.081,-0.261 0.085,-0.268 0.088,-0.269C0.094,-0.274 0.1,-0.279 0.105,-0.284L0.117,-0.297L0.133,-0.311L0.154,-0.331L0.167,-0.338L0.178,-0.347L0.188,-0.351L0.203,-0.362L0.229,-0.371C0.244,-0.377 0.254,-0.38 0.258,-0.38C0.266,-0.381 0.273,-0.382 0.279,-0.383C0.285,-0.377 0.29,-0.373 0.293,-0.373C0.293,-0.373 0.301,-0.375 0.317,-0.38C0.319,-0.38 0.32,-0.38 0.321,-0.38C0.321,-0.38 0.328,-0.379 0.342,-0.375C0.344,-0.375 0.347,-0.374 0.351,-0.374C0.356,-0.374 0.361,-0.373 0.363,-0.373C0.379,-0.377 0.387,-0.379 0.389,-0.379C0.395,-0.379 0.401,-0.377 0.407,-0.373C0.405,-0.365 0.403,-0.36 0.4,-0.357C0.397,-0.354 0.392,-0.351 0.384,-0.349L0.381,-0.336C0.37,-0.331 0.364,-0.327 0.36,-0.324C0.356,-0.321 0.353,-0.32 0.352,-0.319C0.352,-0.319 0.349,-0.32 0.344,-0.32L0.324,-0.319L0.31,-0.321L0.298,-0.322C0.287,-0.326 0.278,-0.328 0.271,-0.329C0.268,-0.329 0.265,-0.329 0.26,-0.329C0.254,-0.33 0.249,-0.33 0.245,-0.33C0.243,-0.33 0.23,-0.328 0.209,-0.324C0.198,-0.323 0.19,-0.321 0.187,-0.32C0.183,-0.318 0.176,-0.311 0.166,-0.301C0.163,-0.298 0.157,-0.296 0.148,-0.294C0.147,-0.287 0.146,-0.282 0.143,-0.28C0.14,-0.277 0.134,-0.275 0.125,-0.274C0.126,-0.27 0.126,-0.267 0.126,-0.264C0.126,-0.263 0.122,-0.256 0.113,-0.243C0.111,-0.239 0.109,-0.219 0.109,-0.184C0.109,-0.176 0.113,-0.161 0.122,-0.14C0.116,-0.131 0.114,-0.124 0.113,-0.12C0.115,-0.118 0.121,-0.117 0.13,-0.114C0.144,-0.096 0.153,-0.083 0.157,-0.074L0.169,-0.073C0.174,-0.066 0.177,-0.062 0.179,-0.061L0.197,-0.049L0.21,-0.039C0.223,-0.034 0.23,-0.031 0.233,-0.031C0.235,-0.03 0.243,-0.029 0.256,-0.029L0.274,-0.025L0.291,-0.024L0.304,-0.022C0.31,-0.023 0.321,-0.027 0.336,-0.034L0.345,-0.031C0.349,-0.034 0.352,-0.036 0.353,-0.037C0.356,-0.038 0.362,-0.042 0.372,-0.05C0.38,-0.051 0.388,-0.054 0.394,-0.06C0.399,-0.065 0.404,-0.07 0.411,-0.073C0.413,-0.075 0.416,-0.077 0.419,-0.081C0.427,-0.09 0.432,-0.094 0.436,-0.094C0.439,-0.094 0.441,-0.093 0.444,-0.089C0.441,-0.076 0.439,-0.065 0.439,-0.056C0.432,-0.049 0.427,-0.043 0.423,-0.036C0.416,-0.034 0.406,-0.028 0.394,-0.02C0.388,-0.019 0.384,-0.017 0.379,-0.014C0.373,-0.01 0.368,-0.008 0.364,-0.008L0.347,-0.009C0.329,-0.005 0.319,-0.003 0.316,-0.002C0.315,-0.002 0.311,0.001 0.303,0.007C0.301,0.008 0.3,0.008 0.298,0.008L0.249,0.008C0.247,0.008 0.242,0.008 0.235,0.009C0.227,0.004 0.22,0.001 0.213,0C0.204,-0 0.191,-0.003 0.173,-0.008L0.162,-0.01L0.148,-0.014C0.139,-0.016 0.134,-0.017 0.132,-0.018C0.129,-0.019 0.127,-0.021 0.124,-0.024C0.107,-0.041 0.099,-0.05 0.099,-0.053C0.099,-0.056 0.099,-0.059 0.1,-0.063C0.1,-0.063 0.1,-0.064 0.1,-0.064L0.083,-0.061C0.083,-0.061 0.083,-0.061 0.082,-0.062C0.076,-0.074 0.072,-0.082 0.069,-0.085C0.064,-0.092 0.061,-0.098 0.061,-0.103C0.061,-0.105 0.06,-0.111 0.059,-0.121L0.059,-0.122L0.062,-0.136C0.052,-0.142 0.048,-0.147 0.048,-0.149C0.048,-0.15 0.056,-0.155 0.071,-0.164C0.079,-0.169 0.083,-0.176 0.083,-0.186C0.083,-0.195 0.073,-0.201 0.052,-0.204Z" style="fill:#fff;fill-rule:nonzero;"/></g><g transform="matrix(41.6667,0,0,41.6667,1318.9,887.086)"><path d="M0.058,-0.782C0.061,-0.788 0.067,-0.793 0.078,-0.798L0.11,-0.815C0.119,-0.819 0.127,-0.821 0.136,-0.821C0.139,-0.821 0.143,-0.82 0.147,-0.817C0.132,-0.81 0.123,-0.806 0.121,-0.804L0.103,-0.784L0.14,-0.749C0.142,-0.747 0.143,-0.744 0.143,-0.739C0.143,-0.736 0.141,-0.731 0.137,-0.723C0.134,-0.716 0.133,-0.713 0.133,-0.713L0.125,-0.709C0.124,-0.709 0.122,-0.707 0.121,-0.703C0.119,-0.7 0.118,-0.697 0.118,-0.695C0.118,-0.692 0.119,-0.688 0.12,-0.683C0.124,-0.683 0.128,-0.685 0.132,-0.688C0.136,-0.689 0.139,-0.69 0.142,-0.691L0.137,-0.605C0.137,-0.603 0.138,-0.599 0.138,-0.593C0.139,-0.588 0.139,-0.584 0.139,-0.582C0.139,-0.575 0.135,-0.567 0.127,-0.56C0.127,-0.552 0.128,-0.548 0.13,-0.546L0.139,-0.536C0.141,-0.534 0.142,-0.53 0.142,-0.524C0.142,-0.522 0.14,-0.514 0.136,-0.5L0.139,-0.481C0.141,-0.463 0.142,-0.454 0.142,-0.453C0.142,-0.452 0.14,-0.447 0.136,-0.437L0.14,-0.416L0.139,-0.406C0.141,-0.396 0.142,-0.391 0.142,-0.391C0.142,-0.389 0.141,-0.387 0.141,-0.385C0.137,-0.367 0.135,-0.35 0.135,-0.333C0.135,-0.327 0.136,-0.319 0.14,-0.312C0.157,-0.322 0.178,-0.339 0.203,-0.362L0.223,-0.358C0.231,-0.363 0.239,-0.367 0.248,-0.369C0.263,-0.372 0.272,-0.373 0.275,-0.373C0.279,-0.373 0.283,-0.371 0.288,-0.366L0.291,-0.355L0.303,-0.355C0.305,-0.357 0.308,-0.361 0.311,-0.367C0.312,-0.37 0.314,-0.371 0.316,-0.371L0.346,-0.369C0.375,-0.367 0.39,-0.365 0.393,-0.363C0.393,-0.363 0.399,-0.357 0.409,-0.345C0.413,-0.341 0.42,-0.336 0.43,-0.332L0.423,-0.317C0.427,-0.314 0.433,-0.313 0.44,-0.313C0.447,-0.304 0.45,-0.295 0.45,-0.286C0.45,-0.276 0.45,-0.264 0.449,-0.252C0.448,-0.241 0.445,-0.234 0.442,-0.23C0.44,-0.228 0.438,-0.226 0.436,-0.224L0.443,-0.205L0.434,-0.193L0.432,-0.189L0.445,-0.175C0.444,-0.171 0.443,-0.168 0.443,-0.167L0.443,-0.154L0.445,-0.125L0.445,-0.12C0.439,-0.11 0.437,-0.104 0.437,-0.102C0.437,-0.1 0.439,-0.089 0.443,-0.068L0.442,-0.026C0.442,-0.026 0.442,-0.024 0.442,-0.021C0.435,-0.016 0.426,-0.013 0.415,-0.011C0.41,-0.007 0.404,-0.004 0.398,-0.001C0.391,0.001 0.385,0.004 0.379,0.006L0.362,-0.009C0.365,-0.017 0.368,-0.026 0.373,-0.036C0.378,-0.048 0.381,-0.061 0.381,-0.073C0.381,-0.076 0.379,-0.084 0.374,-0.096L0.375,-0.103L0.378,-0.121C0.382,-0.131 0.385,-0.145 0.388,-0.162L0.379,-0.167C0.379,-0.178 0.381,-0.197 0.385,-0.224L0.385,-0.233C0.383,-0.249 0.382,-0.257 0.382,-0.257C0.382,-0.257 0.382,-0.259 0.384,-0.261C0.385,-0.264 0.386,-0.266 0.386,-0.268L0.386,-0.269C0.386,-0.27 0.383,-0.276 0.379,-0.285C0.376,-0.291 0.372,-0.295 0.367,-0.298C0.366,-0.3 0.36,-0.301 0.351,-0.304C0.338,-0.31 0.33,-0.314 0.328,-0.314C0.326,-0.315 0.319,-0.315 0.307,-0.315C0.289,-0.318 0.278,-0.319 0.275,-0.319C0.272,-0.319 0.269,-0.319 0.265,-0.318C0.251,-0.317 0.243,-0.317 0.241,-0.317C0.229,-0.317 0.216,-0.315 0.202,-0.312L0.195,-0.31L0.167,-0.295L0.15,-0.29C0.126,-0.268 0.114,-0.257 0.114,-0.254C0.114,-0.246 0.125,-0.239 0.146,-0.235C0.145,-0.228 0.144,-0.224 0.144,-0.222C0.142,-0.212 0.14,-0.194 0.139,-0.168C0.132,-0.168 0.128,-0.167 0.125,-0.164L0.125,-0.161C0.133,-0.151 0.139,-0.143 0.141,-0.136C0.143,-0.127 0.145,-0.113 0.146,-0.094L0.148,-0.079L0.144,-0.057L0.146,-0.044L0.146,-0.036L0.146,-0.027C0.146,-0.025 0.145,-0.021 0.141,-0.017C0.141,-0.016 0.131,-0.013 0.11,-0.006C0.105,-0.005 0.097,0.001 0.087,0.011L0.076,0.001C0.076,-0.009 0.078,-0.021 0.083,-0.036L0.083,-0.05C0.083,-0.05 0.085,-0.055 0.089,-0.063C0.092,-0.067 0.093,-0.071 0.093,-0.075C0.093,-0.077 0.092,-0.08 0.09,-0.083C0.086,-0.09 0.084,-0.094 0.084,-0.095L0.086,-0.121L0.086,-0.11L0.086,-0.144L0.087,-0.157L0.086,-0.175L0.088,-0.212L0.087,-0.24C0.088,-0.243 0.088,-0.247 0.089,-0.25C0.089,-0.251 0.093,-0.255 0.102,-0.262C0.104,-0.264 0.104,-0.266 0.104,-0.27C0.104,-0.275 0.104,-0.28 0.103,-0.286L0.091,-0.282C0.087,-0.298 0.085,-0.315 0.085,-0.335C0.085,-0.36 0.086,-0.387 0.088,-0.418L0.104,-0.42C0.101,-0.427 0.098,-0.435 0.096,-0.443L0.085,-0.451C0.086,-0.46 0.087,-0.467 0.087,-0.472C0.087,-0.477 0.086,-0.482 0.085,-0.488C0.082,-0.511 0.081,-0.527 0.081,-0.536C0.081,-0.544 0.084,-0.55 0.09,-0.555C0.105,-0.567 0.113,-0.573 0.113,-0.574L0.113,-0.575C0.106,-0.582 0.094,-0.585 0.078,-0.586C0.079,-0.591 0.08,-0.597 0.081,-0.604C0.085,-0.616 0.087,-0.622 0.087,-0.624C0.087,-0.629 0.083,-0.634 0.077,-0.639C0.077,-0.648 0.077,-0.654 0.077,-0.659C0.077,-0.665 0.077,-0.671 0.077,-0.676C0.076,-0.687 0.076,-0.695 0.076,-0.698C0.076,-0.7 0.077,-0.707 0.079,-0.719C0.071,-0.744 0.067,-0.758 0.067,-0.761C0.067,-0.764 0.067,-0.768 0.067,-0.772L0.058,-0.782Z" style="fill:#fff;fill-rule:nonzero;"/></g><g transform="matrix(41.6667,0,0,41.6667,1340.25,887.086)"><path d="M0.345,-0.363L0.36,-0.373C0.365,-0.367 0.369,-0.363 0.371,-0.362C0.371,-0.361 0.375,-0.36 0.381,-0.357C0.384,-0.355 0.398,-0.342 0.423,-0.316C0.431,-0.308 0.436,-0.3 0.439,-0.293C0.442,-0.287 0.444,-0.279 0.447,-0.271C0.449,-0.266 0.451,-0.26 0.454,-0.253L0.451,-0.25C0.447,-0.25 0.442,-0.252 0.436,-0.254L0.417,-0.247L0.401,-0.25L0.386,-0.246C0.366,-0.26 0.355,-0.268 0.354,-0.268C0.353,-0.268 0.345,-0.261 0.332,-0.248C0.311,-0.251 0.3,-0.253 0.298,-0.253C0.293,-0.253 0.287,-0.253 0.28,-0.252L0.277,-0.254C0.272,-0.253 0.258,-0.253 0.235,-0.253L0.217,-0.251L0.194,-0.249L0.171,-0.245L0.151,-0.246C0.132,-0.24 0.119,-0.236 0.112,-0.235C0.111,-0.224 0.109,-0.217 0.107,-0.212C0.105,-0.208 0.102,-0.202 0.096,-0.196C0.106,-0.189 0.112,-0.184 0.112,-0.181C0.116,-0.16 0.119,-0.146 0.122,-0.139L0.13,-0.134L0.128,-0.116L0.143,-0.112C0.146,-0.099 0.151,-0.09 0.156,-0.085C0.161,-0.081 0.169,-0.078 0.18,-0.077C0.182,-0.067 0.184,-0.061 0.188,-0.059C0.191,-0.057 0.196,-0.055 0.206,-0.055L0.214,-0.042C0.217,-0.043 0.221,-0.043 0.223,-0.043C0.225,-0.043 0.235,-0.039 0.252,-0.031C0.256,-0.029 0.261,-0.028 0.265,-0.028C0.269,-0.028 0.278,-0.03 0.29,-0.034L0.321,-0.037L0.345,-0.044C0.357,-0.045 0.364,-0.046 0.368,-0.047C0.374,-0.049 0.384,-0.055 0.398,-0.064C0.413,-0.073 0.421,-0.079 0.423,-0.082C0.429,-0.089 0.435,-0.097 0.44,-0.105C0.443,-0.109 0.447,-0.111 0.454,-0.111C0.457,-0.111 0.461,-0.109 0.466,-0.105C0.464,-0.093 0.462,-0.086 0.46,-0.082C0.446,-0.059 0.438,-0.044 0.434,-0.036C0.43,-0.038 0.426,-0.039 0.423,-0.039C0.421,-0.039 0.416,-0.036 0.407,-0.029C0.401,-0.025 0.394,-0.023 0.385,-0.022C0.365,-0.017 0.351,-0.014 0.343,-0.013C0.33,-0.011 0.321,-0.01 0.318,-0.009C0.308,-0.006 0.303,-0.004 0.302,-0.004L0.273,-0.009L0.256,-0.006L0.248,-0.005C0.24,-0.004 0.234,-0.004 0.23,-0.004C0.226,-0.004 0.214,-0.005 0.194,-0.007C0.188,-0.008 0.185,-0.008 0.185,-0.008L0.175,-0.015C0.15,-0.022 0.137,-0.027 0.134,-0.028C0.133,-0.029 0.127,-0.034 0.118,-0.042C0.117,-0.043 0.111,-0.047 0.101,-0.053C0.091,-0.059 0.087,-0.063 0.086,-0.066L0.077,-0.082C0.076,-0.084 0.07,-0.09 0.061,-0.1C0.064,-0.105 0.065,-0.109 0.065,-0.112C0.065,-0.113 0.061,-0.122 0.053,-0.139C0.05,-0.144 0.049,-0.158 0.049,-0.181C0.049,-0.188 0.052,-0.2 0.056,-0.216C0.06,-0.229 0.063,-0.236 0.064,-0.238L0.081,-0.257L0.092,-0.28C0.103,-0.291 0.116,-0.302 0.13,-0.315L0.166,-0.337L0.202,-0.362L0.215,-0.365L0.252,-0.376L0.276,-0.378C0.295,-0.386 0.306,-0.389 0.308,-0.389C0.326,-0.389 0.338,-0.381 0.345,-0.363ZM0.288,-0.29L0.296,-0.28C0.303,-0.281 0.307,-0.282 0.31,-0.282C0.318,-0.284 0.327,-0.286 0.336,-0.289L0.364,-0.287C0.364,-0.287 0.365,-0.288 0.366,-0.292C0.367,-0.293 0.367,-0.295 0.367,-0.296C0.367,-0.299 0.365,-0.303 0.361,-0.307C0.36,-0.308 0.359,-0.31 0.356,-0.313C0.348,-0.323 0.343,-0.328 0.341,-0.328L0.325,-0.335C0.323,-0.336 0.32,-0.34 0.316,-0.347C0.306,-0.348 0.29,-0.349 0.268,-0.349L0.258,-0.349L0.241,-0.339C0.241,-0.339 0.232,-0.336 0.214,-0.333C0.201,-0.328 0.189,-0.323 0.178,-0.318C0.176,-0.317 0.17,-0.311 0.159,-0.302C0.157,-0.3 0.153,-0.297 0.148,-0.293L0.148,-0.29L0.149,-0.289L0.185,-0.275L0.195,-0.264L0.214,-0.287C0.216,-0.288 0.218,-0.289 0.22,-0.289C0.221,-0.289 0.229,-0.287 0.244,-0.283L0.245,-0.283C0.249,-0.283 0.258,-0.284 0.272,-0.288C0.276,-0.289 0.281,-0.289 0.288,-0.29Z" style="fill:#fff;fill-rule:nonzero;"/></g><g transform="matrix(41.6667,0,0,41.6667,1361.69,887.086)"><path d="M0.063,-0.336C0.064,-0.342 0.068,-0.347 0.072,-0.352C0.075,-0.356 0.083,-0.361 0.097,-0.367C0.111,-0.376 0.119,-0.38 0.121,-0.38C0.127,-0.38 0.131,-0.378 0.134,-0.374L0.136,-0.366L0.14,-0.351C0.139,-0.347 0.139,-0.344 0.139,-0.342C0.139,-0.339 0.14,-0.336 0.144,-0.332C0.151,-0.334 0.159,-0.338 0.17,-0.344L0.191,-0.351L0.211,-0.365L0.225,-0.37C0.232,-0.374 0.236,-0.375 0.236,-0.375C0.236,-0.375 0.24,-0.375 0.247,-0.374L0.249,-0.374C0.25,-0.374 0.261,-0.377 0.282,-0.384C0.284,-0.384 0.289,-0.385 0.296,-0.385C0.302,-0.385 0.306,-0.384 0.308,-0.382C0.308,-0.382 0.312,-0.379 0.318,-0.373C0.322,-0.372 0.325,-0.371 0.325,-0.371C0.326,-0.371 0.331,-0.373 0.339,-0.378C0.34,-0.378 0.341,-0.378 0.342,-0.378C0.346,-0.378 0.351,-0.376 0.356,-0.371C0.362,-0.367 0.365,-0.36 0.368,-0.35C0.363,-0.345 0.353,-0.338 0.338,-0.327C0.331,-0.318 0.326,-0.313 0.323,-0.313C0.318,-0.313 0.311,-0.319 0.302,-0.329C0.296,-0.328 0.292,-0.328 0.288,-0.328C0.283,-0.328 0.276,-0.33 0.267,-0.334C0.259,-0.337 0.251,-0.339 0.243,-0.34C0.239,-0.333 0.234,-0.33 0.227,-0.329C0.217,-0.328 0.212,-0.328 0.209,-0.327C0.196,-0.323 0.19,-0.321 0.19,-0.321C0.189,-0.321 0.186,-0.322 0.182,-0.325C0.176,-0.319 0.164,-0.31 0.148,-0.298C0.138,-0.291 0.132,-0.278 0.133,-0.259L0.133,-0.242C0.133,-0.236 0.133,-0.231 0.133,-0.227C0.133,-0.223 0.13,-0.218 0.122,-0.211C0.128,-0.205 0.13,-0.2 0.13,-0.196C0.13,-0.194 0.13,-0.191 0.129,-0.188L0.137,-0.186L0.138,-0.171L0.141,-0.083L0.139,-0.078L0.126,-0.071C0.108,-0.068 0.099,-0.065 0.099,-0.064C0.099,-0.063 0.109,-0.061 0.129,-0.058L0.138,-0.06C0.141,-0.049 0.143,-0.042 0.143,-0.038C0.143,-0.03 0.139,-0.024 0.131,-0.02C0.128,-0.018 0.12,-0.017 0.106,-0.015C0.104,-0.014 0.097,-0.01 0.085,-0.003C0.083,-0.002 0.081,-0.001 0.079,-0.001C0.071,-0.001 0.067,-0.004 0.067,-0.011C0.067,-0.013 0.069,-0.022 0.074,-0.039C0.075,-0.041 0.075,-0.043 0.075,-0.045C0.075,-0.046 0.074,-0.053 0.073,-0.067C0.073,-0.068 0.073,-0.071 0.075,-0.075L0.086,-0.079C0.087,-0.082 0.087,-0.084 0.087,-0.086C0.087,-0.091 0.084,-0.096 0.08,-0.102L0.08,-0.114C0.08,-0.117 0.079,-0.124 0.077,-0.137C0.078,-0.147 0.078,-0.157 0.078,-0.164C0.09,-0.168 0.096,-0.174 0.096,-0.18C0.096,-0.182 0.096,-0.184 0.095,-0.188C0.091,-0.187 0.088,-0.186 0.085,-0.186C0.083,-0.186 0.08,-0.187 0.077,-0.19L0.077,-0.239C0.077,-0.241 0.076,-0.244 0.076,-0.248L0.076,-0.255C0.076,-0.261 0.078,-0.268 0.083,-0.276C0.078,-0.28 0.076,-0.283 0.075,-0.286C0.075,-0.287 0.074,-0.297 0.073,-0.317C0.073,-0.321 0.069,-0.327 0.063,-0.336Z" style="fill:#fff;fill-rule:nonzero;"/></g><g transform="matrix(41.6667,0,0,41.6667,1384.68,887.086)"><path d="M0.07,-0.755L0.07,-0.76C0.074,-0.763 0.079,-0.765 0.086,-0.766C0.091,-0.771 0.099,-0.776 0.109,-0.781C0.124,-0.789 0.133,-0.792 0.137,-0.792C0.139,-0.792 0.144,-0.79 0.15,-0.786C0.156,-0.79 0.16,-0.792 0.162,-0.794C0.166,-0.797 0.169,-0.798 0.173,-0.799C0.179,-0.793 0.187,-0.789 0.197,-0.787C0.215,-0.782 0.227,-0.78 0.233,-0.78L0.235,-0.78C0.256,-0.782 0.266,-0.783 0.266,-0.783L0.294,-0.759C0.305,-0.773 0.312,-0.78 0.313,-0.78C0.317,-0.78 0.322,-0.778 0.328,-0.773C0.33,-0.772 0.332,-0.771 0.334,-0.771L0.346,-0.772L0.377,-0.767L0.397,-0.769L0.418,-0.765L0.438,-0.765L0.471,-0.764C0.48,-0.767 0.485,-0.768 0.485,-0.768L0.513,-0.767L0.525,-0.768L0.539,-0.768L0.586,-0.774C0.609,-0.772 0.623,-0.771 0.627,-0.771C0.638,-0.771 0.646,-0.773 0.649,-0.775C0.654,-0.778 0.659,-0.779 0.663,-0.78L0.742,-0.796C0.743,-0.794 0.743,-0.792 0.743,-0.791C0.743,-0.789 0.742,-0.786 0.74,-0.782C0.736,-0.773 0.734,-0.768 0.732,-0.766C0.73,-0.763 0.726,-0.76 0.72,-0.754C0.707,-0.744 0.697,-0.733 0.689,-0.724C0.684,-0.731 0.68,-0.734 0.676,-0.734L0.666,-0.734C0.665,-0.734 0.66,-0.74 0.65,-0.752C0.65,-0.752 0.649,-0.752 0.649,-0.752C0.647,-0.752 0.644,-0.746 0.64,-0.733L0.64,-0.725C0.631,-0.728 0.626,-0.731 0.625,-0.733C0.62,-0.739 0.616,-0.745 0.611,-0.751C0.611,-0.752 0.611,-0.752 0.61,-0.752L0.58,-0.729C0.579,-0.729 0.577,-0.728 0.574,-0.728C0.566,-0.728 0.556,-0.729 0.544,-0.73C0.539,-0.73 0.533,-0.731 0.523,-0.731C0.519,-0.738 0.514,-0.742 0.509,-0.741L0.494,-0.742C0.49,-0.742 0.482,-0.74 0.472,-0.737C0.465,-0.735 0.457,-0.734 0.446,-0.734C0.441,-0.734 0.431,-0.737 0.417,-0.742L0.403,-0.741L0.389,-0.741C0.381,-0.737 0.377,-0.736 0.376,-0.736C0.376,-0.736 0.361,-0.739 0.33,-0.746L0.318,-0.761L0.303,-0.74L0.276,-0.764C0.276,-0.764 0.273,-0.759 0.268,-0.75C0.263,-0.74 0.256,-0.735 0.246,-0.735L0.245,-0.735C0.242,-0.735 0.238,-0.738 0.233,-0.744C0.223,-0.755 0.216,-0.761 0.21,-0.761C0.204,-0.761 0.199,-0.753 0.196,-0.735C0.197,-0.734 0.198,-0.733 0.198,-0.733L0.152,-0.685L0.195,-0.672L0.195,-0.658L0.195,-0.65C0.194,-0.647 0.192,-0.642 0.187,-0.635L0.196,-0.625L0.198,-0.578C0.207,-0.579 0.214,-0.579 0.218,-0.579C0.225,-0.579 0.241,-0.577 0.268,-0.572L0.328,-0.57L0.34,-0.565L0.356,-0.571C0.37,-0.568 0.379,-0.567 0.381,-0.567C0.385,-0.567 0.39,-0.569 0.396,-0.572C0.397,-0.572 0.398,-0.572 0.399,-0.572C0.401,-0.572 0.404,-0.571 0.41,-0.568L0.412,-0.573C0.415,-0.574 0.417,-0.574 0.417,-0.574L0.45,-0.57C0.465,-0.57 0.472,-0.57 0.473,-0.57C0.474,-0.57 0.477,-0.573 0.483,-0.579L0.488,-0.561C0.489,-0.559 0.49,-0.558 0.493,-0.558C0.495,-0.558 0.506,-0.564 0.526,-0.577C0.53,-0.579 0.533,-0.581 0.535,-0.581C0.535,-0.581 0.541,-0.579 0.554,-0.575C0.555,-0.575 0.556,-0.575 0.557,-0.575C0.562,-0.575 0.568,-0.576 0.574,-0.578C0.584,-0.582 0.604,-0.585 0.634,-0.589C0.655,-0.595 0.669,-0.599 0.677,-0.6L0.677,-0.595C0.677,-0.589 0.676,-0.584 0.675,-0.582C0.673,-0.578 0.669,-0.575 0.662,-0.572L0.664,-0.556C0.655,-0.55 0.646,-0.543 0.638,-0.536C0.628,-0.536 0.622,-0.536 0.619,-0.536C0.602,-0.537 0.59,-0.539 0.583,-0.542C0.574,-0.545 0.567,-0.548 0.56,-0.55C0.552,-0.545 0.545,-0.541 0.54,-0.54C0.538,-0.54 0.525,-0.539 0.502,-0.539L0.491,-0.539C0.479,-0.542 0.471,-0.543 0.468,-0.543C0.465,-0.543 0.462,-0.543 0.459,-0.542C0.443,-0.54 0.434,-0.539 0.432,-0.539C0.431,-0.539 0.425,-0.539 0.412,-0.541C0.409,-0.541 0.408,-0.542 0.406,-0.542L0.379,-0.54C0.377,-0.54 0.37,-0.541 0.36,-0.544L0.331,-0.538L0.314,-0.54L0.298,-0.538L0.285,-0.538L0.265,-0.537C0.254,-0.541 0.245,-0.544 0.238,-0.545L0.236,-0.542L0.234,-0.532L0.208,-0.535C0.208,-0.534 0.207,-0.529 0.206,-0.521C0.204,-0.514 0.204,-0.51 0.204,-0.509C0.204,-0.506 0.204,-0.5 0.205,-0.492C0.206,-0.469 0.207,-0.453 0.207,-0.444C0.203,-0.441 0.199,-0.439 0.195,-0.439C0.192,-0.435 0.19,-0.431 0.19,-0.428C0.19,-0.421 0.195,-0.414 0.205,-0.409C0.189,-0.404 0.179,-0.399 0.173,-0.393C0.169,-0.388 0.167,-0.379 0.167,-0.366C0.167,-0.352 0.173,-0.343 0.184,-0.338C0.198,-0.331 0.206,-0.326 0.206,-0.324C0.206,-0.324 0.205,-0.324 0.205,-0.323C0.2,-0.314 0.197,-0.307 0.197,-0.303C0.197,-0.3 0.198,-0.296 0.199,-0.292L0.207,-0.285L0.208,-0.28L0.205,-0.277C0.201,-0.277 0.197,-0.276 0.195,-0.274C0.196,-0.27 0.199,-0.267 0.204,-0.264L0.204,-0.256L0.205,-0.182C0.205,-0.179 0.204,-0.175 0.202,-0.173C0.201,-0.172 0.197,-0.168 0.188,-0.159C0.186,-0.158 0.186,-0.157 0.186,-0.154C0.186,-0.148 0.192,-0.144 0.205,-0.143L0.206,-0.1L0.207,-0.021C0.208,-0.01 0.209,-0.003 0.209,-0.002C0.209,0.005 0.205,0.012 0.195,0.02C0.199,0.041 0.205,0.051 0.214,0.049C0.214,0.059 0.214,0.065 0.214,0.068C0.216,0.088 0.216,0.1 0.216,0.104C0.216,0.114 0.213,0.119 0.208,0.119C0.204,0.119 0.201,0.118 0.196,0.116C0.196,0.125 0.195,0.13 0.192,0.132C0.192,0.132 0.188,0.134 0.182,0.136L0.168,0.142L0.147,0.148C0.136,0.152 0.13,0.154 0.13,0.154C0.128,0.154 0.124,0.152 0.118,0.147C0.119,0.144 0.12,0.142 0.12,0.141C0.12,0.137 0.117,0.132 0.113,0.126C0.116,0.121 0.12,0.112 0.125,0.102C0.13,0.094 0.133,0.09 0.133,0.088C0.134,0.087 0.134,0.083 0.134,0.075C0.138,0.053 0.14,0.032 0.14,0.012C0.14,0.01 0.14,0.005 0.139,-0.001C0.141,-0.003 0.142,-0.004 0.144,-0.004C0.147,-0.004 0.151,-0.003 0.155,-0.001L0.151,-0.01C0.147,-0.011 0.145,-0.012 0.144,-0.012C0.139,-0.013 0.136,-0.014 0.135,-0.015C0.134,-0.017 0.133,-0.024 0.133,-0.038C0.133,-0.058 0.133,-0.069 0.134,-0.07C0.134,-0.072 0.138,-0.076 0.143,-0.08C0.142,-0.082 0.142,-0.085 0.142,-0.087C0.142,-0.09 0.144,-0.092 0.148,-0.094L0.15,-0.092L0.154,-0.095L0.154,-0.108L0.15,-0.106L0.148,-0.117C0.146,-0.116 0.145,-0.116 0.144,-0.116C0.138,-0.116 0.135,-0.119 0.135,-0.125L0.135,-0.14C0.136,-0.145 0.136,-0.157 0.136,-0.176C0.139,-0.183 0.141,-0.187 0.141,-0.188C0.141,-0.19 0.14,-0.193 0.138,-0.197C0.144,-0.204 0.146,-0.209 0.146,-0.214C0.146,-0.217 0.144,-0.221 0.138,-0.225C0.138,-0.234 0.138,-0.24 0.138,-0.244C0.138,-0.249 0.138,-0.254 0.138,-0.258C0.139,-0.264 0.139,-0.267 0.139,-0.27C0.139,-0.271 0.138,-0.276 0.135,-0.286C0.134,-0.29 0.133,-0.295 0.133,-0.3C0.133,-0.307 0.137,-0.313 0.143,-0.315L0.143,-0.325L0.145,-0.325L0.153,-0.333L0.148,-0.349L0.14,-0.352C0.136,-0.36 0.134,-0.365 0.134,-0.367C0.133,-0.369 0.133,-0.382 0.133,-0.407L0.129,-0.426L0.128,-0.442C0.127,-0.453 0.126,-0.46 0.126,-0.461C0.126,-0.468 0.127,-0.477 0.128,-0.487C0.135,-0.487 0.139,-0.488 0.14,-0.49C0.14,-0.491 0.141,-0.495 0.143,-0.502L0.127,-0.534C0.13,-0.542 0.131,-0.548 0.131,-0.55C0.131,-0.552 0.129,-0.559 0.126,-0.573L0.124,-0.599L0.118,-0.623L0.116,-0.652L0.112,-0.668L0.115,-0.684L0.115,-0.685C0.114,-0.688 0.111,-0.696 0.105,-0.708C0.103,-0.712 0.102,-0.718 0.102,-0.727C0.102,-0.73 0.102,-0.735 0.103,-0.742L0.085,-0.739L0.07,-0.755Z" style="fill:#fff;fill-rule:nonzero;"/></g><g transform="matrix(41.6667,0,0,41.6667,1416.07,887.086)"><path d="M0.063,-0.336C0.063,-0.341 0.067,-0.347 0.077,-0.355C0.099,-0.372 0.117,-0.382 0.133,-0.388L0.147,-0.373C0.144,-0.364 0.142,-0.353 0.14,-0.338C0.138,-0.326 0.137,-0.319 0.137,-0.316L0.137,-0.298L0.128,-0.287C0.128,-0.278 0.132,-0.271 0.139,-0.263C0.137,-0.26 0.136,-0.257 0.136,-0.257L0.137,-0.233C0.137,-0.233 0.137,-0.231 0.137,-0.228C0.136,-0.225 0.136,-0.222 0.136,-0.216L0.134,-0.123C0.134,-0.118 0.136,-0.107 0.14,-0.089L0.141,-0.069C0.143,-0.059 0.144,-0.053 0.144,-0.052C0.144,-0.045 0.141,-0.039 0.135,-0.033C0.134,-0.032 0.127,-0.027 0.117,-0.021C0.1,-0.008 0.091,-0.001 0.089,-0C0.086,0.001 0.083,0.002 0.08,0.002C0.076,0.002 0.072,-0 0.068,-0.004C0.07,-0.012 0.07,-0.017 0.071,-0.02C0.071,-0.024 0.073,-0.031 0.076,-0.042L0.077,-0.065L0.08,-0.113L0.08,-0.122C0.08,-0.127 0.083,-0.13 0.087,-0.13C0.089,-0.13 0.09,-0.13 0.092,-0.129C0.094,-0.135 0.095,-0.138 0.095,-0.14C0.095,-0.143 0.094,-0.148 0.092,-0.155C0.091,-0.159 0.09,-0.163 0.089,-0.169L0.081,-0.175C0.082,-0.182 0.082,-0.188 0.082,-0.191C0.082,-0.193 0.082,-0.195 0.082,-0.199L0.082,-0.206C0.082,-0.21 0.083,-0.215 0.086,-0.22C0.083,-0.224 0.082,-0.228 0.082,-0.232L0.082,-0.239L0.081,-0.25C0.102,-0.254 0.112,-0.258 0.112,-0.261C0.112,-0.261 0.112,-0.262 0.111,-0.262C0.106,-0.266 0.1,-0.269 0.093,-0.269C0.088,-0.269 0.082,-0.268 0.074,-0.268C0.075,-0.272 0.076,-0.276 0.076,-0.277C0.076,-0.278 0.074,-0.294 0.072,-0.326C0.071,-0.33 0.068,-0.333 0.063,-0.336ZM0.071,-0.533L0.071,-0.534C0.071,-0.545 0.079,-0.557 0.096,-0.571C0.1,-0.574 0.104,-0.578 0.109,-0.583C0.109,-0.584 0.112,-0.586 0.119,-0.591C0.131,-0.609 0.138,-0.619 0.141,-0.621C0.146,-0.625 0.15,-0.626 0.153,-0.626C0.155,-0.626 0.158,-0.624 0.165,-0.619C0.171,-0.615 0.174,-0.609 0.174,-0.603C0.174,-0.597 0.171,-0.593 0.165,-0.589C0.15,-0.578 0.136,-0.566 0.122,-0.554L0.108,-0.545L0.091,-0.533C0.082,-0.528 0.077,-0.526 0.076,-0.526C0.073,-0.526 0.071,-0.528 0.071,-0.533Z" style="fill:#fff;fill-rule:nonzero;"/></g><g transform="matrix(41.6667,0,0,41.6667,1424.92,887.086)"><path d="M0.308,-0.187L0.295,-0.178C0.283,-0.181 0.273,-0.183 0.265,-0.183C0.256,-0.183 0.246,-0.182 0.233,-0.181C0.23,-0.189 0.225,-0.194 0.219,-0.198L0.209,-0.186C0.203,-0.185 0.194,-0.183 0.185,-0.181C0.181,-0.18 0.178,-0.179 0.175,-0.179C0.174,-0.179 0.173,-0.179 0.172,-0.18C0.16,-0.182 0.153,-0.184 0.153,-0.184C0.153,-0.184 0.153,-0.183 0.152,-0.182L0.143,-0.192C0.137,-0.19 0.133,-0.188 0.129,-0.188C0.128,-0.188 0.124,-0.19 0.117,-0.193C0.116,-0.194 0.113,-0.195 0.108,-0.197C0.083,-0.206 0.071,-0.22 0.071,-0.24C0.071,-0.257 0.077,-0.274 0.091,-0.291C0.094,-0.296 0.104,-0.305 0.118,-0.317L0.128,-0.326L0.151,-0.34C0.174,-0.354 0.192,-0.364 0.203,-0.368C0.228,-0.379 0.248,-0.384 0.264,-0.384C0.266,-0.384 0.281,-0.38 0.308,-0.374L0.333,-0.378C0.349,-0.377 0.358,-0.376 0.361,-0.375C0.367,-0.371 0.371,-0.368 0.371,-0.365C0.371,-0.361 0.369,-0.358 0.366,-0.355C0.365,-0.354 0.357,-0.349 0.342,-0.34C0.326,-0.331 0.317,-0.326 0.315,-0.326C0.294,-0.326 0.279,-0.328 0.269,-0.331C0.266,-0.337 0.262,-0.343 0.259,-0.347L0.256,-0.347L0.247,-0.337C0.241,-0.337 0.237,-0.337 0.234,-0.337L0.218,-0.338C0.218,-0.338 0.213,-0.337 0.206,-0.335C0.203,-0.337 0.198,-0.338 0.191,-0.338C0.184,-0.333 0.174,-0.326 0.159,-0.318C0.151,-0.314 0.144,-0.308 0.138,-0.299C0.133,-0.291 0.13,-0.283 0.13,-0.275C0.13,-0.272 0.133,-0.267 0.139,-0.262C0.14,-0.261 0.146,-0.258 0.156,-0.254C0.162,-0.251 0.169,-0.247 0.175,-0.243C0.175,-0.241 0.175,-0.238 0.175,-0.237C0.175,-0.23 0.178,-0.227 0.183,-0.227C0.188,-0.227 0.194,-0.231 0.201,-0.239C0.208,-0.238 0.215,-0.238 0.22,-0.238C0.222,-0.238 0.231,-0.239 0.248,-0.242L0.263,-0.241C0.278,-0.243 0.285,-0.244 0.287,-0.244C0.289,-0.244 0.297,-0.241 0.312,-0.237L0.329,-0.239L0.347,-0.227C0.366,-0.218 0.378,-0.209 0.385,-0.202C0.39,-0.195 0.393,-0.19 0.394,-0.186L0.397,-0.17C0.402,-0.15 0.404,-0.139 0.404,-0.136C0.404,-0.134 0.404,-0.129 0.402,-0.119C0.401,-0.098 0.395,-0.088 0.384,-0.088C0.381,-0.088 0.377,-0.088 0.373,-0.089C0.369,-0.073 0.366,-0.064 0.363,-0.062C0.349,-0.045 0.339,-0.033 0.335,-0.027C0.318,-0.025 0.305,-0.02 0.294,-0.012C0.289,-0.008 0.286,-0.006 0.285,-0.006C0.284,-0.006 0.28,-0.005 0.273,-0.004L0.233,0.006C0.22,0.004 0.213,0.003 0.212,0.003C0.21,0.003 0.2,0.006 0.183,0.011L0.171,0.009C0.155,0.008 0.144,0.007 0.136,0.005C0.119,0.001 0.11,-0.002 0.109,-0.004L0.093,-0.014C0.074,-0.026 0.062,-0.034 0.058,-0.04C0.048,-0.051 0.043,-0.062 0.043,-0.073C0.043,-0.075 0.047,-0.079 0.054,-0.084L0.067,-0.097C0.079,-0.106 0.086,-0.11 0.088,-0.11C0.09,-0.11 0.091,-0.11 0.092,-0.109C0.099,-0.102 0.103,-0.094 0.103,-0.085L0.101,-0.07L0.101,-0.069C0.101,-0.066 0.102,-0.064 0.104,-0.063C0.105,-0.061 0.111,-0.058 0.121,-0.052C0.123,-0.05 0.126,-0.048 0.13,-0.045C0.138,-0.038 0.142,-0.035 0.143,-0.035L0.161,-0.027L0.177,-0.019L0.196,-0.019L0.208,-0.016C0.22,-0.02 0.23,-0.022 0.24,-0.022C0.249,-0.022 0.256,-0.024 0.26,-0.026L0.279,-0.035C0.289,-0.039 0.295,-0.041 0.297,-0.042C0.303,-0.047 0.311,-0.058 0.321,-0.075C0.332,-0.092 0.337,-0.112 0.337,-0.134C0.337,-0.139 0.335,-0.143 0.333,-0.147C0.32,-0.167 0.312,-0.18 0.308,-0.187Z" style="fill:#fff;fill-rule:nonzero;"/></g><g transform="matrix(41.6667,0,0,41.6667,1443.52,887.086)"><path d="M0.052,-0.204C0.057,-0.211 0.064,-0.226 0.074,-0.248C0.081,-0.261 0.085,-0.268 0.088,-0.269C0.094,-0.274 0.1,-0.279 0.105,-0.284L0.117,-0.297L0.133,-0.311L0.154,-0.331L0.167,-0.338L0.178,-0.347L0.188,-0.351L0.203,-0.362L0.229,-0.371C0.244,-0.377 0.254,-0.38 0.258,-0.38C0.266,-0.381 0.273,-0.382 0.279,-0.383C0.285,-0.377 0.29,-0.373 0.293,-0.373C0.293,-0.373 0.301,-0.375 0.317,-0.38C0.319,-0.38 0.32,-0.38 0.321,-0.38C0.321,-0.38 0.328,-0.379 0.342,-0.375C0.344,-0.375 0.347,-0.374 0.351,-0.374C0.356,-0.374 0.361,-0.373 0.363,-0.373C0.379,-0.377 0.387,-0.379 0.389,-0.379C0.395,-0.379 0.401,-0.377 0.407,-0.373C0.405,-0.365 0.403,-0.36 0.4,-0.357C0.397,-0.354 0.392,-0.351 0.384,-0.349L0.381,-0.336C0.37,-0.331 0.364,-0.327 0.36,-0.324C0.356,-0.321 0.353,-0.32 0.352,-0.319C0.352,-0.319 0.349,-0.32 0.344,-0.32L0.324,-0.319L0.31,-0.321L0.298,-0.322C0.287,-0.326 0.278,-0.328 0.271,-0.329C0.268,-0.329 0.265,-0.329 0.26,-0.329C0.254,-0.33 0.249,-0.33 0.245,-0.33C0.243,-0.33 0.23,-0.328 0.209,-0.324C0.198,-0.323 0.19,-0.321 0.187,-0.32C0.183,-0.318 0.176,-0.311 0.166,-0.301C0.163,-0.298 0.157,-0.296 0.148,-0.294C0.147,-0.287 0.146,-0.282 0.143,-0.28C0.14,-0.277 0.134,-0.275 0.125,-0.274C0.126,-0.27 0.126,-0.267 0.126,-0.264C0.126,-0.263 0.122,-0.256 0.113,-0.243C0.111,-0.239 0.109,-0.219 0.109,-0.184C0.109,-0.176 0.113,-0.161 0.122,-0.14C0.116,-0.131 0.114,-0.124 0.113,-0.12C0.115,-0.118 0.121,-0.117 0.13,-0.114C0.144,-0.096 0.153,-0.083 0.157,-0.074L0.169,-0.073C0.174,-0.066 0.177,-0.062 0.179,-0.061L0.197,-0.049L0.21,-0.039C0.223,-0.034 0.23,-0.031 0.233,-0.031C0.235,-0.03 0.243,-0.029 0.256,-0.029L0.274,-0.025L0.291,-0.024L0.304,-0.022C0.31,-0.023 0.321,-0.027 0.336,-0.034L0.345,-0.031C0.349,-0.034 0.352,-0.036 0.353,-0.037C0.356,-0.038 0.362,-0.042 0.372,-0.05C0.38,-0.051 0.388,-0.054 0.394,-0.06C0.399,-0.065 0.404,-0.07 0.411,-0.073C0.413,-0.075 0.416,-0.077 0.419,-0.081C0.427,-0.09 0.432,-0.094 0.436,-0.094C0.439,-0.094 0.441,-0.093 0.444,-0.089C0.441,-0.076 0.439,-0.065 0.439,-0.056C0.432,-0.049 0.427,-0.043 0.423,-0.036C0.416,-0.034 0.406,-0.028 0.394,-0.02C0.388,-0.019 0.384,-0.017 0.379,-0.014C0.373,-0.01 0.368,-0.008 0.364,-0.008L0.347,-0.009C0.329,-0.005 0.319,-0.003 0.316,-0.002C0.315,-0.002 0.311,0.001 0.303,0.007C0.301,0.008 0.3,0.008 0.298,0.008L0.249,0.008C0.247,0.008 0.242,0.008 0.235,0.009C0.227,0.004 0.22,0.001 0.213,0C0.204,-0 0.191,-0.003 0.173,-0.008L0.162,-0.01L0.148,-0.014C0.139,-0.016 0.134,-0.017 0.132,-0.018C0.129,-0.019 0.127,-0.021 0.124,-0.024C0.107,-0.041 0.099,-0.05 0.099,-0.053C0.099,-0.056 0.099,-0.059 0.1,-0.063C0.1,-0.063 0.1,-0.064 0.1,-0.064L0.083,-0.061C0.083,-0.061 0.083,-0.061 0.082,-0.062C0.076,-0.074 0.072,-0.082 0.069,-0.085C0.064,-0.092 0.061,-0.098 0.061,-0.103C0.061,-0.105 0.06,-0.111 0.059,-0.121L0.059,-0.122L0.062,-0.136C0.052,-0.142 0.048,-0.147 0.048,-0.149C0.048,-0.15 0.056,-0.155 0.071,-0.164C0.079,-0.169 0.083,-0.176 0.083,-0.186C0.083,-0.195 0.073,-0.201 0.052,-0.204Z" style="fill:#fff;fill-rule:nonzero;"/></g><g transform="matrix(41.6667,0,0,41.6667,1462.97,887.086)"><path d="M0.058,-0.782C0.061,-0.788 0.067,-0.793 0.078,-0.798L0.11,-0.815C0.119,-0.819 0.127,-0.821 0.136,-0.821C0.139,-0.821 0.143,-0.82 0.147,-0.817C0.132,-0.81 0.123,-0.806 0.121,-0.804L0.103,-0.784L0.14,-0.749C0.142,-0.747 0.143,-0.744 0.143,-0.739C0.143,-0.736 0.141,-0.731 0.137,-0.723C0.134,-0.716 0.133,-0.713 0.133,-0.713L0.125,-0.709C0.124,-0.709 0.122,-0.707 0.121,-0.703C0.119,-0.7 0.118,-0.697 0.118,-0.695C0.118,-0.692 0.119,-0.688 0.12,-0.683C0.124,-0.683 0.128,-0.685 0.132,-0.688C0.136,-0.689 0.139,-0.69 0.142,-0.691L0.137,-0.605C0.137,-0.603 0.138,-0.599 0.138,-0.593C0.139,-0.588 0.139,-0.584 0.139,-0.582C0.139,-0.575 0.135,-0.567 0.127,-0.56C0.127,-0.552 0.128,-0.548 0.13,-0.546L0.139,-0.536C0.141,-0.534 0.142,-0.53 0.142,-0.524C0.142,-0.522 0.14,-0.514 0.136,-0.5L0.139,-0.481C0.141,-0.463 0.142,-0.454 0.142,-0.453C0.142,-0.452 0.14,-0.447 0.136,-0.437L0.14,-0.416L0.139,-0.406C0.141,-0.396 0.142,-0.391 0.142,-0.391C0.142,-0.389 0.141,-0.387 0.141,-0.385C0.137,-0.367 0.135,-0.35 0.135,-0.333C0.135,-0.327 0.136,-0.319 0.14,-0.312C0.157,-0.322 0.178,-0.339 0.203,-0.362L0.223,-0.358C0.231,-0.363 0.239,-0.367 0.248,-0.369C0.263,-0.372 0.272,-0.373 0.275,-0.373C0.279,-0.373 0.283,-0.371 0.288,-0.366L0.291,-0.355L0.303,-0.355C0.305,-0.357 0.308,-0.361 0.311,-0.367C0.312,-0.37 0.314,-0.371 0.316,-0.371L0.346,-0.369C0.375,-0.367 0.39,-0.365 0.393,-0.363C0.393,-0.363 0.399,-0.357 0.409,-0.345C0.413,-0.341 0.42,-0.336 0.43,-0.332L0.423,-0.317C0.427,-0.314 0.433,-0.313 0.44,-0.313C0.447,-0.304 0.45,-0.295 0.45,-0.286C0.45,-0.276 0.45,-0.264 0.449,-0.252C0.448,-0.241 0.445,-0.234 0.442,-0.23C0.44,-0.228 0.438,-0.226 0.436,-0.224L0.443,-0.205L0.434,-0.193L0.432,-0.189L0.445,-0.175C0.444,-0.171 0.443,-0.168 0.443,-0.167L0.443,-0.154L0.445,-0.125L0.445,-0.12C0.439,-0.11 0.437,-0.104 0.437,-0.102C0.437,-0.1 0.439,-0.089 0.443,-0.068L0.442,-0.026C0.442,-0.026 0.442,-0.024 0.442,-0.021C0.435,-0.016 0.426,-0.013 0.415,-0.011C0.41,-0.007 0.404,-0.004 0.398,-0.001C0.391,0.001 0.385,0.004 0.379,0.006L0.362,-0.009C0.365,-0.017 0.368,-0.026 0.373,-0.036C0.378,-0.048 0.381,-0.061 0.381,-0.073C0.381,-0.076 0.379,-0.084 0.374,-0.096L0.375,-0.103L0.378,-0.121C0.382,-0.131 0.385,-0.145 0.388,-0.162L0.379,-0.167C0.379,-0.178 0.381,-0.197 0.385,-0.224L0.385,-0.233C0.383,-0.249 0.382,-0.257 0.382,-0.257C0.382,-0.257 0.382,-0.259 0.384,-0.261C0.385,-0.264 0.386,-0.266 0.386,-0.268L0.386,-0.269C0.386,-0.27 0.383,-0.276 0.379,-0.285C0.376,-0.291 0.372,-0.295 0.367,-0.298C0.366,-0.3 0.36,-0.301 0.351,-0.304C0.338,-0.31 0.33,-0.314 0.328,-0.314C0.326,-0.315 0.319,-0.315 0.307,-0.315C0.289,-0.318 0.278,-0.319 0.275,-0.319C0.272,-0.319 0.269,-0.319 0.265,-0.318C0.251,-0.317 0.243,-0.317 0.241,-0.317C0.229,-0.317 0.216,-0.315 0.202,-0.312L0.195,-0.31L0.167,-0.295L0.15,-0.29C0.126,-0.268 0.114,-0.257 0.114,-0.254C0.114,-0.246 0.125,-0.239 0.146,-0.235C0.145,-0.228 0.144,-0.224 0.144,-0.222C0.142,-0.212 0.14,-0.194 0.139,-0.168C0.132,-0.168 0.128,-0.167 0.125,-0.164L0.125,-0.161C0.133,-0.151 0.139,-0.143 0.141,-0.136C0.143,-0.127 0.145,-0.113 0.146,-0.094L0.148,-0.079L0.144,-0.057L0.146,-0.044L0.146,-0.036L0.146,-0.027C0.146,-0.025 0.145,-0.021 0.141,-0.017C0.141,-0.016 0.131,-0.013 0.11,-0.006C0.105,-0.005 0.097,0.001 0.087,0.011L0.076,0.001C0.076,-0.009 0.078,-0.021 0.083,-0.036L0.083,-0.05C0.083,-0.05 0.085,-0.055 0.089,-0.063C0.092,-0.067 0.093,-0.071 0.093,-0.075C0.093,-0.077 0.092,-0.08 0.09,-0.083C0.086,-0.09 0.084,-0.094 0.084,-0.095L0.086,-0.121L0.086,-0.11L0.086,-0.144L0.087,-0.157L0.086,-0.175L0.088,-0.212L0.087,-0.24C0.088,-0.243 0.088,-0.247 0.089,-0.25C0.089,-0.251 0.093,-0.255 0.102,-0.262C0.104,-0.264 0.104,-0.266 0.104,-0.27C0.104,-0.275 0.104,-0.28 0.103,-0.286L0.091,-0.282C0.087,-0.298 0.085,-0.315 0.085,-0.335C0.085,-0.36 0.086,-0.387 0.088,-0.418L0.104,-0.42C0.101,-0.427 0.098,-0.435 0.096,-0.443L0.085,-0.451C0.086,-0.46 0.087,-0.467 0.087,-0.472C0.087,-0.477 0.086,-0.482 0.085,-0.488C0.082,-0.511 0.081,-0.527 0.081,-0.536C0.081,-0.544 0.084,-0.55 0.09,-0.555C0.105,-0.567 0.113,-0.573 0.113,-0.574L0.113,-0.575C0.106,-0.582 0.094,-0.585 0.078,-0.586C0.079,-0.591 0.08,-0.597 0.081,-0.604C0.085,-0.616 0.087,-0.622 0.087,-0.624C0.087,-0.629 0.083,-0.634 0.077,-0.639C0.077,-0.648 0.077,-0.654 0.077,-0.659C0.077,-0.665 0.077,-0.671 0.077,-0.676C0.076,-0.687 0.076,-0.695 0.076,-0.698C0.076,-0.7 0.077,-0.707 0.079,-0.719C0.071,-0.744 0.067,-0.758 0.067,-0.761C0.067,-0.764 0.067,-0.768 0.067,-0.772L0.058,-0.782Z" style="fill:#fff;fill-rule:nonzero;"/></g></g><circle cx="10.522" cy="44.471" r="2.399" style="fill:#85654d;"/><circle cx="10.522" cy="93.417" r="2.399" style="fill:#85654d;"/><circle cx="203.862" cy="44.471" r="2.399" style="fill:#85654d;"/><circle cx="203.862" cy="93.417" r="2.399" style="fill:#85654d;"/></g><g transform="matrix(4.16667,0,0,4.16667,-1249.02,-585.417)"><path d="M416.06,176.968C416.06,177.71 415.704,178.416 415.038,179.078L274.525,179.078C277.069,178.213 281.566,177.639 286.686,177.639C287.508,177.639 288.319,177.657 289.096,177.683C289.074,177.48 289.052,177.268 289.052,177.065C289.052,173.367 293.883,170.366 299.858,170.34C299.847,170.278 299.836,170.207 299.836,170.145C299.836,162.607 309.109,156.508 320.548,156.508C330.066,156.508 338.051,160.727 340.484,166.482C342.127,166.279 343.838,166.156 345.615,166.156C348.424,166.156 351.09,166.438 353.5,166.932C355.81,160.948 364.384,156.508 374.623,156.508C386.64,156.508 396.38,162.607 396.38,170.145L396.38,170.163C407.33,170.34 416.06,173.314 416.06,176.968Z" style="fill:#fff;fill-rule:nonzero;"/></g><g transform="matrix(1.00919,-0.0977852,0.0977852,1.00919,131.034,123.767)"><g transform="matrix(0.148768,0.559676,-0.349537,0.0929108,438.619,59.9853)"><path d="M180.209,102.718C148.015,102.718 121.878,156.386 121.878,222.491C121.878,288.596 148.015,342.265 180.209,342.265C156.064,332.284 136.461,282.051 136.461,222.491C136.461,162.932 156.064,112.699 180.209,102.718Z" style="fill:#404040;"/></g><g transform="matrix(0.0619079,0.575792,-0.359602,0.0386637,541.601,52.835)"><path d="M180.209,102.718C148.015,102.718 121.878,156.386 121.878,222.491C121.878,288.596 148.015,342.265 180.209,342.265C156.064,332.284 136.461,282.051 136.461,222.491C136.461,162.932 156.064,112.699 180.209,102.718Z" style="fill:#404040;"/></g></g><g transform="matrix(0.639274,-0.0391881,0.0391881,0.639274,130.254,122.127)"><g transform="matrix(0.148768,0.559676,-0.349537,0.0929108,438.619,59.9853)"><path d="M180.209,102.718C148.015,102.718 121.878,156.386 121.878,222.491C121.878,288.596 148.015,342.265 180.209,342.265C156.064,332.284 136.461,282.051 136.461,222.491C136.461,162.932 156.064,112.699 180.209,102.718Z" style="fill:#404040;"/></g><g transform="matrix(0.0619079,0.575792,-0.359602,0.0386637,541.601,52.835)"><path d="M180.209,102.718C148.015,102.718 121.878,156.386 121.878,222.491C121.878,288.596 148.015,342.265 180.209,342.265C156.064,332.284 136.461,282.051 136.461,222.491C136.461,162.932 156.064,112.699 180.209,102.718Z" style="fill:#404040;"/></g></g><g transform="matrix(0.636361,0,0,0.636361,381.555,764.546)"><path d="M155.305,168.422C156.525,168.422 157.723,167.934 158.604,167.02L217.993,105.397C218.812,104.544 219.273,103.405 219.273,102.22L219.273,77.948C219.273,75.419 217.224,73.369 214.695,73.369L155.306,73.369C152.777,73.369 150.727,75.419 150.727,77.948L150.727,163.844C150.727,165.711 151.861,167.391 153.592,168.09C154.147,168.313 154.729,168.422 155.305,168.422Z" style="fill:#653d1f;fill-rule:nonzero;"/><path d="M288.756,122.708L231.861,181.741C231.041,182.594 230.581,183.733 230.581,184.92L230.581,292.055C230.581,294.582 232.631,296.633 235.16,296.633L292.054,296.633C294.583,296.633 296.633,294.582 296.633,292.055L296.633,125.886C296.633,124.018 295.498,122.338 293.767,121.639C292.035,120.941 290.054,121.364 288.756,122.708Z" style="fill:#653d1f;fill-rule:nonzero;"/><path d="M77.946,248.694C79.166,248.694 80.363,248.207 81.244,247.293L138.137,188.26C138.959,187.407 139.418,186.269 139.418,185.082L139.418,77.946C139.418,75.417 137.368,73.367 134.839,73.367L77.946,73.367C75.417,73.367 73.367,75.417 73.367,77.946L73.367,244.114C73.367,245.982 74.502,247.663 76.233,248.361C76.788,248.585 77.37,248.694 77.946,248.694Z" style="fill:#653d1f;fill-rule:nonzero;"/><path d="M4.579,296.633L57.477,296.633C60.006,296.633 62.057,294.582 62.057,292.055L62.057,77.946C62.057,75.417 60.006,73.367 57.477,73.367L4.579,73.367C2.05,73.368 0,75.417 0,77.946L0,292.053C0,294.583 2.05,296.633 4.579,296.633Z" style="fill:#653d1f;fill-rule:nonzero;"/><path d="M73.367,292.055C73.367,294.582 75.417,296.633 77.946,296.633L103.486,296.633C104.729,296.633 105.92,296.126 106.783,295.231L295.35,99.589C296.173,98.735 296.633,97.597 296.633,96.412L296.633,77.946C296.633,75.417 294.583,73.367 292.054,73.367L266.513,73.367C265.27,73.367 264.079,73.873 263.215,74.768L74.65,270.352C73.827,271.206 73.367,272.344 73.367,273.53L73.367,292.055Z" style="fill:#653d1f;fill-rule:nonzero;"/><path d="M365.421,307.942L4.579,307.942C2.05,307.942 0,309.994 0,312.522L0,365.42C0,367.949 2.05,370 4.579,370L365.421,370C367.95,370 370,367.949 370,365.421L370,312.523C370,309.994 367.95,307.942 365.421,307.942ZM31.861,338.954C31.861,332.947 36.75,328.058 42.758,328.058C48.765,328.058 53.653,332.948 53.653,338.954C53.653,344.96 48.765,349.848 42.758,349.848C36.75,349.847 31.861,344.96 31.861,338.954ZM316.347,338.954C316.347,332.947 321.235,328.058 327.243,328.058C333.251,328.058 338.139,332.948 338.139,338.954C338.139,344.96 333.251,349.848 327.243,349.848C321.235,349.848 316.347,344.96 316.347,338.954Z" style="fill:#653d1f;fill-rule:nonzero;"/><path d="M235.16,85.562C236.379,85.562 237.577,85.075 238.458,84.162L241.384,81.125C242.658,79.803 243.02,77.846 242.301,76.155C241.583,74.465 239.924,73.368 238.087,73.368L235.16,73.368C232.631,73.368 230.581,75.418 230.581,77.947L230.581,80.983C230.581,82.85 231.715,84.532 233.445,85.229C234.001,85.454 234.583,85.562 235.16,85.562Z" style="fill:#653d1f;fill-rule:nonzero;"/><path d="M211.396,202.979L152.006,264.602C151.185,265.456 150.725,266.594 150.725,267.782L150.725,292.055C150.725,294.582 152.775,296.633 155.304,296.633L214.692,296.633C217.223,296.633 219.272,294.582 219.272,292.055L219.272,206.159C219.272,204.292 218.139,202.61 216.407,201.913C214.677,201.212 212.693,201.635 211.396,202.979Z" style="fill:#653d1f;fill-rule:nonzero;"/><path d="M365.421,0L4.579,0C2.05,0 0,2.05 0,4.58L0,57.478C0,60.007 2.05,62.058 4.579,62.058L365.421,62.058C367.95,62.058 370,60.007 370,57.478L370,4.58C370,2.05 367.95,0 365.421,0ZM31.861,31.046C31.861,25.039 36.75,20.152 42.758,20.152C48.765,20.152 53.653,25.039 53.653,31.046C53.653,37.054 48.765,41.941 42.758,41.941C36.75,41.94 31.861,37.055 31.861,31.046ZM316.347,31.046C316.347,25.039 321.235,20.152 327.243,20.152C333.251,20.152 338.139,25.039 338.139,31.046C338.139,37.054 333.251,41.941 327.243,41.941C321.235,41.941 316.347,37.055 316.347,31.046Z" style="fill:#653d1f;fill-rule:nonzero;"/><path d="M365.421,73.368L312.524,73.368C309.995,73.368 307.944,75.418 307.944,77.947L307.944,292.054C307.944,294.582 309.995,296.633 312.524,296.633L365.421,296.633C367.95,296.633 370,294.582 370,292.054L370,77.946C370,75.417 367.95,73.368 365.421,73.368Z" style="fill:#653d1f;fill-rule:nonzero;"/><path d="M131.542,285.839L128.616,288.875C127.341,290.197 126.98,292.152 127.698,293.844C128.416,295.535 130.075,296.633 131.912,296.633L134.839,296.633C137.368,296.633 139.418,294.582 139.418,292.055L139.418,289.018C139.418,287.151 138.284,285.469 136.553,284.772C134.822,284.073 132.838,284.495 131.542,285.839Z" style="fill:#653d1f;fill-rule:nonzero;"/></g><g transform="matrix(0.79631,0,0,0.79631,48.0917,705.365)"><path d="M155.305,168.422C156.525,168.422 157.723,167.934 158.604,167.02L217.993,105.397C218.812,104.544 219.273,103.405 219.273,102.22L219.273,77.948C219.273,75.419 217.224,73.369 214.695,73.369L155.306,73.369C152.777,73.369 150.727,75.419 150.727,77.948L150.727,163.844C150.727,165.711 151.861,167.391 153.592,168.09C154.147,168.313 154.729,168.422 155.305,168.422Z" style="fill:#653d1f;fill-rule:nonzero;"/><path d="M288.756,122.708L231.861,181.741C231.041,182.594 230.581,183.733 230.581,184.92L230.581,292.055C230.581,294.582 232.631,296.633 235.16,296.633L292.054,296.633C294.583,296.633 296.633,294.582 296.633,292.055L296.633,125.886C296.633,124.018 295.498,122.338 293.767,121.639C292.035,120.941 290.054,121.364 288.756,122.708Z" style="fill:#653d1f;fill-rule:nonzero;"/><path d="M77.946,248.694C79.166,248.694 80.363,248.207 81.244,247.293L138.137,188.26C138.959,187.407 139.418,186.269 139.418,185.082L139.418,77.946C139.418,75.417 137.368,73.367 134.839,73.367L77.946,73.367C75.417,73.367 73.367,75.417 73.367,77.946L73.367,244.114C73.367,245.982 74.502,247.663 76.233,248.361C76.788,248.585 77.37,248.694 77.946,248.694Z" style="fill:#653d1f;fill-rule:nonzero;"/><path d="M4.579,296.633L57.477,296.633C60.006,296.633 62.057,294.582 62.057,292.055L62.057,77.946C62.057,75.417 60.006,73.367 57.477,73.367L4.579,73.367C2.05,73.368 0,75.417 0,77.946L0,292.053C0,294.583 2.05,296.633 4.579,296.633Z" style="fill:#653d1f;fill-rule:nonzero;"/><path d="M73.367,292.055C73.367,294.582 75.417,296.633 77.946,296.633L103.486,296.633C104.729,296.633 105.92,296.126 106.783,295.231L295.35,99.589C296.173,98.735 296.633,97.597 296.633,96.412L296.633,77.946C296.633,75.417 294.583,73.367 292.054,73.367L266.513,73.367C265.27,73.367 264.079,73.873 263.215,74.768L74.65,270.352C73.827,271.206 73.367,272.344 73.367,273.53L73.367,292.055Z" style="fill:#653d1f;fill-rule:nonzero;"/><path d="M365.421,307.942L4.579,307.942C2.05,307.942 0,309.994 0,312.522L0,365.42C0,367.949 2.05,370 4.579,370L365.421,370C367.95,370 370,367.949 370,365.421L370,312.523C370,309.994 367.95,307.942 365.421,307.942ZM31.861,338.954C31.861,332.947 36.75,328.058 42.758,328.058C48.765,328.058 53.653,332.948 53.653,338.954C53.653,344.96 48.765,349.848 42.758,349.848C36.75,349.847 31.861,344.96 31.861,338.954ZM316.347,338.954C316.347,332.947 321.235,328.058 327.243,328.058C333.251,328.058 338.139,332.948 338.139,338.954C338.139,344.96 333.251,349.848 327.243,349.848C321.235,349.848 316.347,344.96 316.347,338.954Z" style="fill:#653d1f;fill-rule:nonzero;"/><path d="M235.16,85.562C236.379,85.562 237.577,85.075 238.458,84.162L241.384,81.125C242.658,79.803 243.02,77.846 242.301,76.155C241.583,74.465 239.924,73.368 238.087,73.368L235.16,73.368C232.631,73.368 230.581,75.418 230.581,77.947L230.581,80.983C230.581,82.85 231.715,84.532 233.445,85.229C234.001,85.454 234.583,85.562 235.16,85.562Z" style="fill:#653d1f;fill-rule:nonzero;"/><path d="M211.396,202.979L152.006,264.602C151.185,265.456 150.725,266.594 150.725,267.782L150.725,292.055C150.725,294.582 152.775,296.633 155.304,296.633L214.692,296.633C217.223,296.633 219.272,294.582 219.272,292.055L219.272,206.159C219.272,204.292 218.139,202.61 216.407,201.913C214.677,201.212 212.693,201.635 211.396,202.979Z" style="fill:#653d1f;fill-rule:nonzero;"/><path d="M365.421,0L4.579,0C2.05,0 0,2.05 0,4.58L0,57.478C0,60.007 2.05,62.058 4.579,62.058L365.421,62.058C367.95,62.058 370,60.007 370,57.478L370,4.58C370,2.05 367.95,0 365.421,0ZM31.861,31.046C31.861,25.039 36.75,20.152 42.758,20.152C48.765,20.152 53.653,25.039 53.653,31.046C53.653,37.054 48.765,41.941 42.758,41.941C36.75,41.94 31.861,37.055 31.861,31.046ZM316.347,31.046C316.347,25.039 321.235,20.152 327.243,20.152C333.251,20.152 338.139,25.039 338.139,31.046C338.139,37.054 333.251,41.941 327.243,41.941C321.235,41.941 316.347,37.055 316.347,31.046Z" style="fill:#653d1f;fill-rule:nonzero;"/><path d="M365.421,73.368L312.524,73.368C309.995,73.368 307.944,75.418 307.944,77.947L307.944,292.054C307.944,294.582 309.995,296.633 312.524,296.633L365.421,296.633C367.95,296.633 370,294.582 370,292.054L370,77.946C370,75.417 367.95,73.368 365.421,73.368Z" style="fill:#653d1f;fill-rule:nonzero;"/><path d="M131.542,285.839L128.616,288.875C127.341,290.197 126.98,292.152 127.698,293.844C128.416,295.535 130.075,296.633 131.912,296.633L134.839,296.633C137.368,296.633 139.418,294.582 139.418,292.055L139.418,289.018C139.418,287.151 138.284,285.469 136.553,284.772C134.822,284.073 132.838,284.495 131.542,285.839Z" style="fill:#653d1f;fill-rule:nonzero;"/></g><g transform="matrix(6.19083,0,0,5.18547,824.134,534.815)"><path d="M16.545,19L16.545,14.091C16.545,6.872 22.418,1 29.636,1C36.754,1 42.545,6.791 42.545,13.909L42.545,19" style="fill:none;fill-rule:nonzero;stroke:#855029;stroke-width:1.46px;stroke-linecap:butt;stroke-miterlimit:10;"/></g><g id="brief" transform="matrix(0.156362,-0.105817,0.105817,0.156362,942.509,600.29)"><path d="M44.138,229.517L256,397.241L467.862,229.517" style="fill:#486896;fill-rule:nonzero;"/><path d="M44.138,229.517L256,397.241L467.862,229.517L467.862,494.345C467.862,504.096 459.958,512 450.207,512L61.793,512C52.042,512 44.138,504.096 44.138,494.345L44.138,229.517Z" style="fill:#5679ae;fill-rule:nonzero;"/><g transform="matrix(1,0,0,1,0,-1)"><path d="M294.355,374.641C271.88,356.848 240.119,356.848 217.644,374.641L49.976,507.379C53.109,510.223 57.228,512 61.793,512L450.207,512C454.772,512 458.891,510.222 462.024,507.379L294.355,374.641Z" style="fill:#486896;fill-rule:nonzero;"/></g></g><g id="brief1" serif:id="brief" transform="matrix(0.156362,-0.105817,0.105817,0.156362,961.484,608.709)"><path d="M44.138,229.517L256,397.241L467.862,229.517" style="fill:#486896;fill-rule:nonzero;"/><path d="M44.138,229.517L256,397.241L467.862,229.517L467.862,494.345C467.862,504.096 459.958,512 450.207,512L61.793,512C52.042,512 44.138,504.096 44.138,494.345L44.138,229.517Z" style="fill:#5679ae;fill-rule:nonzero;"/><g id="fish" transform="matrix(4.38648,2.96854,-2.96854,4.38648,-2092.31,-5308.93)"><g transform="matrix(-0.150342,0.271872,-0.271872,-0.150342,1050.41,328.158)"><g transform="matrix(0.902565,0,0,0.841128,30.9781,52.9659)"><path d="M317.937,221.832C291.852,223.227 263.227,229.07 237.469,243.938C208.201,260.845 165.765,299.128 134.644,333.388C118.14,233.059 271.86,150.891 271.86,150.891L317.937,221.832Z" style="fill:#449457;fill-rule:nonzero;"/></g><g transform="matrix(0.84458,2.27192e-16,1.64642e-16,0.874885,19.7407,54.9287)"><path d="M338.779,420.843C338.779,420.843 333.59,374.101 302.96,364.629C304.606,363.757 306.176,362.885 307.691,362.013C324.478,352.322 338.561,339.656 350.269,325.954L350.28,325.943C350.279,325.943 394.306,380.402 338.779,420.843Z" style="fill:#449457;fill-rule:nonzero;"/></g><path d="M512,134.049L414.037,239.403C399.136,255.438 386.371,273.304 375.678,292.413C368.843,304.622 360.45,317.31 350.28,329.213L350.269,329.224C338.562,342.926 324.478,355.592 307.691,365.283C306.176,366.155 304.606,367.027 302.96,367.899C260.099,390.779 174.747,414.128 131.025,417.115C120.56,417.834 112.036,425.737 110.303,436.082C106.662,457.84 100.231,481.123 86.256,507.241C85.951,447.637 51.462,387.902 0,357.827C29.541,358.786 54.492,367.616 75.868,376.62C85.809,380.795 97.342,377.438 103.381,368.51C110.641,357.773 121.193,344.812 133.554,331.219L133.554,331.208C164.675,296.948 207.111,258.665 236.379,241.758C262.137,226.89 290.762,221.047 316.847,219.652C321.251,219.412 325.578,219.303 329.808,219.303C353.331,219.281 376.408,212.948 396.727,201.121L512,134.049Z" style="fill:#6abe71;fill-rule:nonzero;"/></g><g transform="matrix(1.83085e-17,0.299,-0.261667,1.60225e-17,1648.52,265.92)"><path d="M169.964,183.748C172.234,182.951 240.189,161.174 240.189,161.174C281.95,147.822 326.865,148.099 368.46,161.96L374.704,164.041C280.499,125.281 238.561,118.738 210.33,112.394C202.171,110.556 162.248,102.995 149.438,131.248C143.603,144.102 141.389,162.524 169.964,183.748Z" style="fill:#3b804b;fill-rule:nonzero;"/><path d="M121.816,253.615C73.413,286.917 10.982,290.482 10.982,290.482C4.916,290.482 0,285.212 0,278.691C0,273.853 2.712,269.69 6.598,267.886C6.808,267.786 36.8,250.659 60.017,224.232C36.801,197.805 6.809,180.678 6.598,180.578C2.712,178.773 0,174.611 0,169.773C0,163.252 4.916,157.993 10.983,157.993C10.983,157.993 73.303,161.536 121.684,194.76C121.728,194.793 121.773,194.815 121.817,194.849C121.33,195.115 120.854,195.403 120.378,195.713C111.587,201.293 105.875,211.567 105.875,223.059L105.875,225.406C105.874,237.517 114.011,246.312 121.816,253.615Z" style="fill:#3b804b;fill-rule:nonzero;"/><g transform="matrix(1,-1.2326e-32,1.2326e-32,1,38.5552,-3.20757)"><path d="M163.377,303.383C164.827,311.83 184.224,349.683 199.857,364.717C205.88,370.518 213.718,373.795 220.771,369.289C220.771,369.289 245.947,351.221 273.26,321.229C233.005,314.907 193.879,296.252 165.028,279.358C161.605,286.167 162.026,295.523 163.377,303.383Z" style="fill:#3b804b;fill-rule:nonzero;"/></g><path d="M503.773,211.903C498.237,205.77 491.063,201.352 483.225,198.739L366.247,159.746C324.652,145.885 279.737,145.608 237.976,158.96L174.128,179.375C159.237,184.122 134.325,194.955 118.611,192.691C118.611,192.691 117.532,193.302 117.056,193.612C108.265,199.192 102.553,209.466 102.553,220.958L102.553,223.305C102.553,234.799 108.901,243.031 117.149,250.343C117.593,250.736 118.883,251.827 119.63,252.411C132.087,262.135 244.656,347.259 336.565,322.194C427.027,297.517 544.227,256.62 503.773,211.903Z" style="fill:#6abe71;fill-rule:nonzero;"/></g><g transform="matrix(1.83085e-17,0.299,-0.261667,1.60225e-17,1571.59,287.091)"><path d="M169.964,183.748C172.234,182.951 240.189,161.174 240.189,161.174C281.95,147.822 326.865,148.099 368.46,161.96L374.704,164.041C280.499,125.281 238.561,118.738 210.33,112.394C202.171,110.556 162.248,102.995 149.438,131.248C143.603,144.102 141.389,162.524 169.964,183.748Z" style="fill:#3b804b;fill-rule:nonzero;"/><path d="M121.816,253.615C73.413,286.917 10.982,290.482 10.982,290.482C4.916,290.482 0,285.212 0,278.691C0,273.853 2.712,269.69 6.598,267.886C6.808,267.786 36.8,250.659 60.017,224.232C36.801,197.805 6.809,180.678 6.598,180.578C2.712,178.773 0,174.611 0,169.773C0,163.252 4.916,157.993 10.983,157.993C10.983,157.993 73.303,161.536 121.684,194.76C121.728,194.793 121.773,194.815 121.817,194.849C121.33,195.115 120.854,195.403 120.378,195.713C111.587,201.293 105.875,211.567 105.875,223.059L105.875,225.406C105.874,237.517 114.011,246.312 121.816,253.615Z" style="fill:#3b804b;fill-rule:nonzero;"/><g transform="matrix(1,-1.2326e-32,1.2326e-32,1,38.5552,-3.20757)"><path d="M163.377,303.383C164.827,311.83 184.224,349.683 199.857,364.717C205.88,370.518 213.718,373.795 220.771,369.289C220.771,369.289 245.947,351.221 273.26,321.229C233.005,314.907 193.879,296.252 165.028,279.358C161.605,286.167 162.026,295.523 163.377,303.383Z" style="fill:#3b804b;fill-rule:nonzero;"/></g><path d="M503.773,211.903C498.237,205.77 491.063,201.352 483.225,198.739L366.247,159.746C324.652,145.885 279.737,145.608 237.976,158.96L174.128,179.375C159.237,184.122 134.325,194.955 118.611,192.691C118.611,192.691 117.532,193.302 117.056,193.612C108.265,199.192 102.553,209.466 102.553,220.958L102.553,223.305C102.553,234.799 108.901,243.031 117.149,250.343C117.593,250.736 118.883,251.827 119.63,252.411C132.087,262.135 244.656,347.259 336.565,322.194C427.027,297.517 544.227,256.62 503.773,211.903Z" style="fill:#6abe71;fill-rule:nonzero;"/></g><g transform="matrix(0.022679,0.283293,-0.283293,0.022679,1287.68,313.151)"><g transform="matrix(1,0,0,1,131.774,10.1364)"><path d="M207.418,358.904L332.057,345.806C332.057,345.806 332.046,345.806 332.046,345.795C295.542,339.482 260.638,327.092 232.691,314.992C214.278,322.099 207.418,358.904 207.418,358.904Z" style="fill:#61acd2;fill-rule:nonzero;"/></g><path d="M5.368,254.975L59.995,289.804L0,356.842L167.381,284.435C167.381,284.435 588.107,448.208 689.986,294.268C661.175,225.678 414.33,184.529 310.906,189.664L310.874,189.653L167.381,240.222L0,153.096L59.995,220.134L5.368,254.975Z" style="fill:#495577;fill-rule:nonzero;"/><g transform="matrix(0.976667,0.214757,-0.214757,0.976667,90.053,-63.8331)"><path d="M250.624,212.759C250.796,212.727 250.957,212.695 251.129,212.662L313.179,190.797L310.881,189.637L235.657,156.832C235.658,156.833 234.23,201.765 250.624,212.759Z" style="fill:#61acd2;fill-rule:nonzero;"/></g></g><g transform="matrix(0.022679,0.283293,-0.283293,0.022679,1361.93,313.151)"><g transform="matrix(1,0,0,1,131.774,10.1364)"><path d="M207.418,358.904L332.057,345.806C332.057,345.806 332.046,345.806 332.046,345.795C295.542,339.482 260.638,327.092 232.691,314.992C214.278,322.099 207.418,358.904 207.418,358.904Z" style="fill:#61acd2;fill-rule:nonzero;"/></g><path d="M5.368,254.975L59.995,289.804L0,356.842L167.381,284.435C167.381,284.435 588.107,448.208 689.986,294.268C661.175,225.678 414.33,184.529 310.906,189.664L310.874,189.653L167.381,240.222L0,153.096L59.995,220.134L5.368,254.975Z" style="fill:#495577;fill-rule:nonzero;"/><g transform="matrix(0.976667,0.214757,-0.214757,0.976667,90.053,-63.8331)"><path d="M250.624,212.759C250.796,212.727 250.957,212.695 251.129,212.662L313.179,190.797L310.881,189.637L235.657,156.832C235.658,156.833 234.23,201.765 250.624,212.759Z" style="fill:#61acd2;fill-rule:nonzero;"/></g></g><g transform="matrix(0.022679,0.283293,-0.283293,0.022679,1437.64,299.249)"><g transform="matrix(1,0,0,1,131.774,10.1364)"><path d="M207.418,358.904L332.057,345.806C332.057,345.806 332.046,345.806 332.046,345.795C295.542,339.482 260.638,327.092 232.691,314.992C214.278,322.099 207.418,358.904 207.418,358.904Z" style="fill:#61acd2;fill-rule:nonzero;"/></g><path d="M5.368,254.975L59.995,289.804L0,356.842L167.381,284.435C167.381,284.435 588.107,448.208 689.986,294.268C661.175,225.678 414.33,184.529 310.906,189.664L310.874,189.653L167.381,240.222L0,153.096L59.995,220.134L5.368,254.975Z" style="fill:#495577;fill-rule:nonzero;"/><g transform="matrix(0.976667,0.214757,-0.214757,0.976667,90.053,-63.8331)"><path d="M250.624,212.759C250.796,212.727 250.957,212.695 251.129,212.662L313.179,190.797L310.881,189.637L235.657,156.832C235.658,156.833 234.23,201.765 250.624,212.759Z" style="fill:#61acd2;fill-rule:nonzero;"/></g></g></g><g transform="matrix(1,0,0,1,0,-1)"><path d="M294.355,374.641C271.88,356.848 240.119,356.848 217.644,374.641L49.976,507.379C53.109,510.223 57.228,512 61.793,512L450.207,512C454.772,512 458.891,510.222 462.024,507.379L294.355,374.641Z" style="fill:#486896;fill-rule:nonzero;"/></g></g><g id="brief2" serif:id="brief" transform="matrix(0.155645,-0.106868,0.106868,0.155645,918.854,612.507)"><path d="M256,61.793L44.138,229.517L256,397.241L467.862,229.517L256,61.793Z" style="fill:#486896;fill-rule:nonzero;"/><path d="M441.379,0L70.621,0C65.746,0 61.793,3.953 61.793,8.828L61.793,370.759L450.207,370.759L450.207,8.828C450.207,3.953 446.254,0 441.379,0Z" style="fill:#eff2fa;fill-rule:nonzero;"/><g><path d="M397.241,211.862L114.759,211.862C109.884,211.862 105.931,207.909 105.931,203.034C105.931,198.159 109.884,194.206 114.759,194.206L397.242,194.206C402.117,194.206 406.07,198.159 406.07,203.034C406.07,207.909 402.116,211.862 397.241,211.862Z" style="fill:#c7cfe2;fill-rule:nonzero;"/><path d="M397.241,247.172L114.759,247.172C109.884,247.172 105.931,243.219 105.931,238.344C105.931,233.469 109.884,229.516 114.759,229.516L397.242,229.516C402.117,229.516 406.07,233.469 406.07,238.344C406.069,243.22 402.116,247.172 397.241,247.172Z" style="fill:#c7cfe2;fill-rule:nonzero;"/><path d="M397.241,282.483L114.759,282.483C109.884,282.483 105.931,278.53 105.931,273.655C105.931,268.78 109.884,264.827 114.759,264.827L397.242,264.827C402.117,264.827 406.07,268.78 406.07,273.655C406.07,278.53 402.116,282.483 397.241,282.483Z" style="fill:#c7cfe2;fill-rule:nonzero;"/><path d="M397.241,317.793L114.759,317.793C109.884,317.793 105.931,313.84 105.931,308.965C105.931,304.09 109.884,300.137 114.759,300.137L397.242,300.137C402.117,300.137 406.07,304.09 406.07,308.965C406.07,313.84 402.116,317.793 397.241,317.793Z" style="fill:#c7cfe2;fill-rule:nonzero;"/><path d="M397.241,353.103L114.759,353.103C109.884,353.103 105.931,349.15 105.931,344.275C105.931,339.4 109.884,335.447 114.759,335.447L397.242,335.447C402.117,335.447 406.07,339.4 406.07,344.275C406.069,349.151 402.116,353.103 397.241,353.103Z" style="fill:#c7cfe2;fill-rule:nonzero;"/></g><path d="M44.138,229.517L256,397.241L467.862,229.517L467.862,494.345C467.862,504.096 459.958,512 450.207,512L61.793,512C52.042,512 44.138,504.096 44.138,494.345L44.138,229.517Z" style="fill:#5679ae;fill-rule:nonzero;"/><path d="M294.355,374.641C271.88,356.848 240.119,356.848 217.644,374.641L49.976,507.379C53.109,510.223 57.228,512 61.793,512L450.207,512C454.772,512 458.891,510.222 462.024,507.379L294.355,374.641Z" style="fill:#486896;fill-rule:nonzero;"/><g><path d="M397.241,61.793L335.448,61.793C330.573,61.793 326.62,57.84 326.62,52.965C326.62,48.09 330.573,44.137 335.448,44.137L397.241,44.137C402.116,44.137 406.069,48.09 406.069,52.965C406.069,57.84 402.116,61.793 397.241,61.793Z" style="fill:#afb9d2;fill-rule:nonzero;"/><path d="M397.241,97.103L300.138,97.103C295.263,97.103 291.31,93.15 291.31,88.275C291.31,83.4 295.263,79.447 300.138,79.447L397.241,79.447C402.116,79.447 406.069,83.4 406.069,88.275C406.069,93.151 402.116,97.103 397.241,97.103Z" style="fill:#afb9d2;fill-rule:nonzero;"/><path d="M335.448,158.897L176.552,158.897C171.677,158.897 167.724,154.944 167.724,150.069C167.724,145.194 171.677,141.241 176.552,141.241L335.449,141.241C340.324,141.241 344.277,145.194 344.277,150.069C344.276,154.944 340.323,158.897 335.448,158.897Z" style="fill:#9b5757;fill-rule:nonzero;"/></g></g><g transform="matrix(3.34987,0,0,2.84127,908.222,564.046)"><path d="M56.566,19L39.5,19C39.5,24.497 34.997,28.952 29.5,28.952C24.003,28.952 19.5,24.496 19.5,19L2.434,19C1.823,19 1.361,19.554 1.47,20.155L7.79,56.81C8.065,58.087 9.194,59 10.5,59L48.5,59C49.806,59 50.935,58.087 51.209,56.81L57.529,20.155C57.639,19.554 57.177,19 56.566,19Z" style="fill:#f4e6ce;fill-rule:nonzero;"/><path d="M4.765,39L54.325,39L56.049,29L3.041,29L4.765,39Z" style="fill:#f29c1f;fill-rule:nonzero;"/><path d="M51.254,56.81L52.601,49L6.49,49L7.837,56.81C8.11,58.087 9.239,59 10.545,59L48.545,59C49.852,59 50.981,58.087 51.254,56.81Z" style="fill:#f29c1f;fill-rule:nonzero;"/></g><g transform="matrix(-0.278654,0,0,0.278654,1555.34,756.172)"><g><path d="M107.253,184.669L96.524,173.94C72.832,150.248 72.832,111.836 96.524,88.144L107.253,77.415L117.982,88.144C141.674,111.836 141.674,150.248 117.982,173.94L107.253,184.669Z" style="fill:#f9d43a;fill-rule:nonzero;"/><path d="M107.253,184.669L96.524,195.398C72.832,219.09 34.42,219.09 10.728,195.398L0,184.669L10.729,173.94C34.421,150.248 72.833,150.248 96.525,173.94L107.253,184.669Z" style="fill:#f9d43a;fill-rule:nonzero;"/></g><path d="M441.642,197.163C439.008,199.797 434.737,199.797 432.102,197.163C429.468,194.529 429.468,190.258 432.102,187.623L441.691,178.034L100.601,178.034C100.601,241.994 135.004,297.923 186.321,328.321C212.342,343.733 242.708,352.574 275.14,352.574C278.122,352.574 281.094,352.499 284.044,352.35C314.868,350.795 343.584,341.252 368.156,325.733C414.104,296.75 445.571,246.905 449.296,189.509L441.642,197.163Z" style="fill:#f9993a;fill-rule:nonzero;"/><path d="M441.642,197.163C439.008,199.797 434.737,199.797 432.102,197.163C429.468,194.529 429.468,190.258 432.102,187.623L441.694,178.031L339.756,178.031C336.068,192.132 334.118,206.921 334.118,222.172C334.118,260.95 346.757,296.766 368.158,325.731C414.099,296.745 445.565,246.907 449.292,189.513L441.642,197.163Z" style="fill:#f9d43a;fill-rule:nonzero;"/><circle cx="386.748" cy="218.801" r="22.501" style="fill:#fff;"/><circle cx="386.748" cy="218.801" r="13.767" style="fill:#4d4d4d;"/><path d="M219.305,178.031L273.688,178.031L273.688,160.228C273.688,143.138 259.834,129.284 242.744,129.284L184.219,129.284L184.219,142.946C184.219,162.322 199.928,178.031 219.305,178.031Z" style="fill:#f9d43a;fill-rule:nonzero;"/><path d="M238.603,371.881L184.22,371.881L184.22,354.078C184.22,336.988 198.074,323.134 215.164,323.134L273.689,323.134L273.689,336.796C273.689,356.172 257.98,371.881 238.603,371.881Z" style="fill:#f9d43a;fill-rule:nonzero;"/></g></svg>